<?xml version="1.0" encoding="utf-8"?>
<!-- Generator: Adobe Illustrator 18.1.1, SVG Export Plug-In . SVG Version: 6.00 Build 0)  -->
<svg version="1.1" id="Layer_1" xmlns="http://www.w3.org/2000/svg" xmlns:xlink="http://www.w3.org/1999/xlink" x="0px" y="0px"
	 width="100px" height="47.8px" viewBox="0 0 100 47.8" enable-background="new 0 0 100 47.8" xml:space="preserve">
<path d="M16.1,20.7c0.7-1.3,1-3.3,1-6.1v-4.1c0-1.9,0.2-3.1,0.7-3.6c0.4-0.5,1.2-0.9,2.4-1c0.1,0,0.3,0,0.6-0.1
	c2.8-0.4,4.2-1.4,4.2-3.1c0-0.8-0.4-1.5-1.1-2C23.1,0.3,22.1,0,20.9,0c-2,0-3.8,0.3-5.4,0.8C13.9,1.3,12.6,2,11.6,3
	c-0.8,0.8-1.4,1.8-1.8,3c-0.3,1.1-0.5,3.1-0.5,5.9v3.3c0,3.2-1.5,5-4.6,5.5c-0.8,0.1-1.5,0.2-1.9,0.4c-1,0.2-1.7,0.5-2.2,1
	S0,23.1,0,23.9c0,0.9,0.3,1.6,0.8,2.1c0.5,0.5,1.3,0.8,2.5,0.9c0.1,0,0.2,0,0.3,0.1c3.8,0.5,5.7,2.4,5.7,5.7v3.2
	c0,3,0.2,5.2,0.7,6.4c0.4,1.3,1.2,2.3,2.3,3.1c1,0.7,2.2,1.3,3.8,1.7c1.5,0.4,3.1,0.6,4.7,0.6c1.3,0,2.3-0.3,3-0.8
	c0.8-0.5,1.1-1.2,1.1-2c0-1.7-1.3-2.8-3.9-3.1c-0.5-0.1-0.9-0.1-1.1-0.2c-1.1-0.2-1.8-0.5-2.2-1c-0.4-0.5-0.6-1.6-0.6-3.4v-4.1
	c0-2.9-0.3-5-1-6.2c-0.7-1.2-1.9-2.3-3.6-3.2C14.2,23.1,15.4,22,16.1,20.7z"/>
<path d="M83.9,20.7c-0.7-1.3-1-3.3-1-6.1v-4.1c0-1.9-0.2-3.1-0.7-3.6c-0.4-0.5-1.2-0.9-2.4-1c-0.1,0-0.3,0-0.6-0.1
	c-2.8-0.4-4.2-1.4-4.2-3.1c0-0.8,0.4-1.5,1.1-2C76.9,0.3,77.9,0,79.1,0c2,0,3.8,0.3,5.4,0.8C86.1,1.3,87.4,2,88.4,3
	c0.8,0.8,1.4,1.8,1.8,3c0.3,1.1,0.5,3.1,0.5,5.9v3.3c0,3.2,1.5,5,4.6,5.5c0.8,0.1,1.5,0.2,1.9,0.4c1,0.2,1.7,0.5,2.2,1
	c0.4,0.5,0.7,1.1,0.7,1.9c0,0.9-0.3,1.6-0.8,2.1c-0.5,0.5-1.3,0.8-2.5,0.9c-0.1,0-0.2,0-0.3,0.1c-3.8,0.5-5.7,2.4-5.7,5.7v3.2
	c0,3-0.2,5.2-0.7,6.4c-0.4,1.3-1.2,2.3-2.3,3.1c-1,0.7-2.2,1.3-3.8,1.7c-1.5,0.4-3.1,0.6-4.7,0.6c-1.3,0-2.3-0.3-3-0.8
	c-0.8-0.5-1.1-1.2-1.1-2c0-1.7,1.3-2.8,3.9-3.1c0.5-0.1,0.9-0.1,1.1-0.2c1.1-0.2,1.8-0.5,2.2-1c0.4-0.5,0.6-1.6,0.6-3.4v-4.1
	c0-2.9,0.3-5,1-6.2c0.7-1.2,1.9-2.3,3.6-3.2C85.8,23.1,84.6,22,83.9,20.7z"/>
<path d="M32.6,17.4c3.6,0,6.5,2.9,6.5,6.5s-2.9,6.5-6.5,6.5s-6.5-2.9-6.5-6.5S29,17.4,32.6,17.4z"/>
<path d="M50,17.4c3.6,0,6.5,2.9,6.5,6.5s-2.9,6.5-6.5,6.5s-6.5-2.9-6.5-6.5S46.4,17.4,50,17.4z"/>
<path d="M67.4,17.4c3.6,0,6.5,2.9,6.5,6.5s-2.9,6.5-6.5,6.5c-3.6,0-6.5-2.9-6.5-6.5S63.8,17.4,67.4,17.4z"/>
</svg>
