<?xml version="1.0" encoding="utf-8"?>
<!-- Generator: Adobe Illustrator 21.1.0, SVG Export Plug-In . SVG Version: 6.00 Build 0)  -->
<svg version="1.1" id="Layer_1" xmlns="http://www.w3.org/2000/svg" xmlns:xlink="http://www.w3.org/1999/xlink" x="0px" y="0px"
	 width="100px" height="100px" viewBox="0 0 100 100" style="enable-background:new 0 0 100 100;" xml:space="preserve">
<path d="M50,5c24.8,0,45,20.2,45,45S74.8,95,50,95S5,74.8,5,50S25.2,5,50,5 M50,0C22.4,0,0,22.4,0,50s22.4,50,50,50s50-22.4,50-50
	S77.6,0,50,0L50,0z"/>
<g>
	<path d="M46.4,72.6c-4.5-0.3-8.7-1.6-11.4-3.4v-9.5c3.4,2.6,7.9,4.8,13,4.8c4.2,0,7.7-1.3,7.7-5c0-3.4-2.9-4.8-7.9-6.1
		c-9.3-2.4-13.2-6.1-13.2-13.7c0-7.1,5.3-11.9,12.2-13V20h7.4v6.9c3.4,0.5,6.3,1.6,8.7,3.2v9.3c-3.7-2.9-7.4-4.5-12.4-4.5
		c-4,0-6.3,1.9-6.3,4.5c0,3.4,2.6,4.5,8.2,5.8c9.3,2.4,13.2,6.3,13.2,14c0,7.4-5,11.4-11.6,13V80h-7.4L46.4,72.6z"/>
</g>
</svg>
