<?xml version="1.0" encoding="utf-8"?>
<!-- Generator: Adobe Illustrator 22.0.0, SVG Export Plug-In . SVG Version: 6.00 Build 0)  -->
<svg version="1.1" id="Layer_1" xmlns="http://www.w3.org/2000/svg" xmlns:xlink="http://www.w3.org/1999/xlink" x="0px" y="0px"
	 width="100px" height="77.3px" viewBox="0 0 100 77.3" style="enable-background:new 0 0 100 77.3;" xml:space="preserve">
<g transform="translate(239 799)">
	<path d="M-148.1-789.9v45.4h-22.7l9.1,9.1h20.5c1.2,0.1,2.2-0.8,2.3-2c0-0.1,0-0.2,0-0.3v-59.1c0.1-1.2-0.8-2.2-2-2.3
		c-0.1,0-0.2,0-0.3,0h-95.4c-1.2-0.1-2.2,0.8-2.3,2c0,0.1,0,0.2,0,0.3v59.1c-0.1,1.2,0.8,2.2,2,2.3c0.1,0,0.2,0,0.3,0h20.4l9.1-9.1
		h-22.7v-45.4H-148.1 M-216.3-721.7l27.3-31.8l27.3,31.8H-216.3L-216.3-721.7z"/>
</g>
</svg>
