<?xml version="1.0" encoding="utf-8"?>
<!-- Generator: Adobe Illustrator 18.1.1, SVG Export Plug-In . SVG Version: 6.00 Build 0)  -->
<svg version="1.1" id="Layer_1" xmlns:sketch="http://www.bohemiancoding.com/sketch/ns"
	 xmlns="http://www.w3.org/2000/svg" xmlns:xlink="http://www.w3.org/1999/xlink" x="0px" y="0px" width="100px" height="100px"
	 viewBox="-390 295 100 100" enable-background="new -390 295 100 100" xml:space="preserve">
<title>tracks</title>
<desc>Created with Sketch.</desc>
<path id="tracks" sketch:type="MSShapeGroup" d="M-365,391.7v3.3c-13.8,0-25-11.2-25-25c0-3.7,0.8-7.1,2.2-10.3l0,0
	c-1.4-4.7-2.2-9.6-2.2-14.7c0-27.6,22.4-50,50-50s50,22.4,50,50c0,5.1-0.8,10.1-2.2,14.7l0,0c1.4,3.1,2.2,6.6,2.2,10.3
	c0,13.8-11.2,25-25,25v-3.3v-13.3V345c6.2,0,11.9,2.3,16.2,6c0.3-2,0.4-4,0.4-6c0-23-18.7-41.7-41.7-41.7s-41.7,18.7-41.7,41.7
	c0,2,0.1,4,0.4,6c4.4-3.7,10-6,16.2-6v33.3V391.7L-365,391.7z"/>
</svg>
