<?xml version="1.0" encoding="utf-8"?>
<!-- Generator: Adobe Illustrator 18.1.1, SVG Export Plug-In . SVG Version: 6.00 Build 0)  -->
<svg version="1.1" id="Layer_1" xmlns="http://www.w3.org/2000/svg" xmlns:xlink="http://www.w3.org/1999/xlink" x="0px" y="0px"
	 width="100px" height="63.5px" viewBox="430 496.5 100 63.5" enable-background="new 430 496.5 100 63.5" xml:space="preserve">
<title>billingCC</title>
<path d="M430,516.8v36.1c0,3.9,3.2,7.1,7,7.1H523c3.9,0,7-3.2,7-7.1c0,0,0,0,0,0v-36.1H430z M522.6,552.4H505v-10.1h17.6V552.4z"/>
<path d="M530,506.6v-3.1c0-3.9-3.2-7-7-7c0,0,0,0,0,0h-85.9c-3.9,0-7,3.2-7,7v3.1L530,506.6L530,506.6z"/>
</svg>
