<?xml version="1.0" encoding="utf-8"?>
<!-- Generator: Adobe Illustrator 18.1.1, SVG Export Plug-In . SVG Version: 6.00 Build 0)  -->
<svg version="1.1" id="Layer_1" xmlns="http://www.w3.org/2000/svg" xmlns:xlink="http://www.w3.org/1999/xlink" x="0px" y="0px"
	 width="94.5px" height="100px" viewBox="42.3 23.9 94.5 100" style="enable-background:new 42.3 23.9 94.5 100;"
	 xml:space="preserve">
<g>
	<path d="M125.3,123.9h-72c-6.3,0-11-4.9-11-11V46.1c0-6.3,4.5-11.4,10.8-11.4h5.3v-8.1c0-1.6,1-2.8,2.8-2.8h8.1
		c1.6,0,2.8,1,2.8,2.8v8.1h35v-8.1c0-1.6,1-2.8,2.8-2.8h8.1c1.6,0,2.8,1,2.8,2.8v8.1h5.3c6.3,0,10.8,5.3,10.8,11.4v66.7
		C136.7,119,131.6,123.9,125.3,123.9z M53.1,61.9l0.2,51h72.4l0.2-51H53.1z"/>
	<path d="M85.4,67.2h8.1v8.1h-8.1V67.2z"/>
	<path d="M96.2,67.2h8.1v8.1h-8.1V67.2z"/>
	<path d="M107,67.2h8.1v8.1H107V67.2z"/>
	<path d="M85.4,78h8.1v8.1h-8.1V78z"/>
	<path d="M74.7,78h8.1v8.1h-8.1V78z"/>
	<path d="M63.9,78H72v8.1h-8.1V78z"/>
	<path d="M96.2,78h8.1v8.1h-8.1V78z"/>
	<path d="M107,78h8.1v8.1H107V78z"/>
	<path d="M85.4,88.9h8.1V97h-8.1V88.9z"/>
	<path d="M74.7,88.9h8.1V97h-8.1V88.9z"/>
	<path d="M63.9,88.9H72V97h-8.1V88.9z"/>
	<path d="M96.2,88.9h8.1V97h-8.1V88.9z"/>
	<path d="M107,88.9h8.1V97H107V88.9z"/>
	<path d="M85.4,99.7h8.1v8.1h-8.1V99.7z"/>
	<path d="M74.7,99.7h8.1v8.1h-8.1V99.7z"/>
	<path d="M63.9,99.7H72v8.1h-8.1V99.7z"/>
	<path d="M96.2,99.7h8.1v8.1h-8.1V99.7z"/>
</g>
</svg>
