<?xml version="1.0" encoding="utf-8"?>
<!-- Generator: Adobe Illustrator 18.1.1, SVG Export Plug-In . SVG Version: 6.00 Build 0)  -->
<svg version="1.1" id="Layer_1" xmlns="http://www.w3.org/2000/svg" xmlns:xlink="http://www.w3.org/1999/xlink" x="0px" y="0px"
	 width="100px" height="50px" viewBox="0 0 100 50" enable-background="new 0 0 100 50" xml:space="preserve">
<path fill-rule="evenodd" clip-rule="evenodd" d="M92.9,42.9L75,35.7c-1.3,0-2.5-0.4-3.6-1v8.1c0,3.9-3.2,7.1-7.1,7.1H7.1
	C3.2,50,0,46.8,0,42.9V7.1C0,3.2,3.2,0,7.1,0h57.1c3.9,0,7.1,3.2,7.1,7.1v8.1c1.1-0.6,2.3-1,3.6-1l17.9-7.1c3.9,0,7.1,3.2,7.1,7.1
	v21.4C100,39.7,96.8,42.9,92.9,42.9z"/>
<path fill="#FFFFFF" d="M33,10.2c-0.5,0.3-0.8,0.7-1,1c-0.2,0.3-0.3,0.7-0.3,1.1c0,0.4,0.1,0.7,0.4,1c0.2,0.3,0.6,0.7,1.1,1l1.8,1.2
	l1.9-1.3c0.4-0.3,0.7-0.6,0.9-0.9c0.2-0.3,0.3-0.6,0.3-1c0-0.4-0.1-0.7-0.3-1.1c-0.2-0.3-0.6-0.7-1-1l-1.8-1.2L33,10.2z M33.8,20
	c-1.3,0.3-2.7,0.5-4.1,0.7l0.3,1.6c0.1,0,0.2,0,0.3,0c0.3,0,0.5,0,0.6,0c0.7,0,1.2,0.2,1.4,0.6c0.2,0.4,0.4,1.4,0.4,2.9v1.8l0,4.3
	c0,0.3,0,0.7,0,1.2c0,3.1-0.9,4.7-2.6,4.7h-0.4v1.7c1.2-0.1,2.2-0.1,3.1-0.2c0.9,0,1.5-0.1,2.1-0.1c0.6,0,1.4,0,2.3,0.1
	c0.9,0,2,0.1,3.2,0.2v-1.7c-0.1,0-0.2,0-0.3,0s-0.2,0-0.3,0c-0.9,0-1.5-0.2-1.8-0.7c-0.3-0.4-0.5-1.4-0.5-3v-2.3
	c0-1.4,0-3.1,0.1-5.3c0-2.1,0.1-4.7,0.2-7.5C36.4,19.4,35.1,19.7,33.8,20z"/>
</svg>
