<?xml version="1.0" encoding="utf-8"?>
<!-- Generator: Adobe Illustrator 22.0.0, SVG Export Plug-In . SVG Version: 6.00 Build 0)  -->
<svg version="1.1" id="Layer_1" xmlns="http://www.w3.org/2000/svg" xmlns:xlink="http://www.w3.org/1999/xlink" x="0px" y="0px"
	 width="100px" height="73.6px" viewBox="0 0 100 73.6" style="enable-background:new 0 0 100 73.6;" xml:space="preserve">
<g transform="translate(239 945)">
	<path d="M-204.4-871.4h-6.5c0-15.5-12.5-28.1-28-28.1c0,0-0.1,0-0.1,0v-6.5C-219.9-906-204.4-890.5-204.4-871.4z M-239-893.1v6.5
		c8.3,0.1,15.1,6.8,15.1,15.1h6.5c0.1-11.8-9.4-21.5-21.2-21.6C-238.7-893.1-238.9-893.1-239-893.1z M-239-880.1v8.7h8.7
		C-230.4-876.2-234.2-880.1-239-880.1z M-141.6-945h-90.9c-1.1-0.1-2.1,0.8-2.2,1.9c0,0.1,0,0.2,0,0.3v26.4c2.9,0.3,5.8,0.9,8.7,1.7
		v-21.6h77.9v51.9h-47.2c0.8,2.8,1.4,5.7,1.7,8.7h52.4c1.1,0.1,2.1-0.8,2.2-1.9c0-0.1,0-0.2,0-0.3v-64.9
		C-139.3-944.1-140.4-945-141.6-945z"/>
</g>
</svg>
