<?xml version="1.0" encoding="utf-8"?>
<!-- Generator: Adobe Illustrator 18.1.1, SVG Export Plug-In . SVG Version: 6.00 Build 0)  -->
<svg version="1.1" id="Layer_1" xmlns="http://www.w3.org/2000/svg" xmlns:xlink="http://www.w3.org/1999/xlink" x="0px" y="0px"
	 width="100px" height="100px" viewBox="13 0 100 100" style="enable-background:new 13 0 100 100;" xml:space="preserve">
<path d="M81.5,50l27.7,27.7c5,5,5,13.3,0,18.5c-5,5-13.3,5-18.5,0L63,68.5L35.3,96.2c-5,5-13.3,5-18.5,0c-5-5-5-13.3,0-18.5L44.5,50
	L16.8,22.3c-5-5-5-13.3,0-18.5c5-5,13.3-5,18.5,0L63,31.5L90.7,3.8c5-5,13.3-5,18.5,0c5,5,5,13.3,0,18.5L81.5,50z"/>
</svg>
