<?xml version="1.0" encoding="utf-8"?>
<!-- Generator: Adobe Illustrator 18.1.1, SVG Export Plug-In . SVG Version: 6.00 Build 0)  -->
<svg version="1.1" id="Layer_1" xmlns="http://www.w3.org/2000/svg" xmlns:xlink="http://www.w3.org/1999/xlink" x="0px" y="0px"
	 width="98.9px" height="66.2px" viewBox="-1050 803.4 98.9 66.2" enable-background="new -1050 803.4 98.9 66.2"
	 xml:space="preserve">
<g id="XMLID_6_">
	<path id="XMLID_45_" d="M-973.4,820.8c-3.1-10.1-12.6-17.4-23.7-17.4c-8.8,0-16.5,4.5-20.9,11.4c-1.5-0.6-3.2-1-5-1
		c-7.3,0-13.2,5.9-13.2,13.1c0,0.8,0.1,1.6,0.2,2.4c-8.1,2.7-14,10.4-14,19.5c0,11.3,9.1,20.4,20.3,20.6l5.9,0.2h49v-0.2
		c13-0.3,23.7-11.1,23.7-24.3C-951.1,832.3-960.9,821.9-973.4,820.8z"/>
</g>
</svg>
