<?xml version="1.0" encoding="utf-8"?>
<!-- Generator: Adobe Illustrator 18.1.1, SVG Export Plug-In . SVG Version: 6.00 Build 0)  -->
<svg version="1.1" id="Layer_1" xmlns="http://www.w3.org/2000/svg" xmlns:xlink="http://www.w3.org/1999/xlink" x="0px" y="0px"
	 width="98.9px" height="66.2px" viewBox="-700 535.6 98.9 66.2" enable-background="new -700 535.6 98.9 66.2"
	 xml:space="preserve">
<g id="XMLID_6_">
	<path id="XMLID_45_" d="M-623.4,553c-3.1-10.1-12.6-17.4-23.7-17.4c-8.8,0-16.5,4.5-20.9,11.4c-1.5-0.6-3.2-1-5-1
		c-7.3,0-13.2,5.9-13.2,13.1c0,0.8,0.1,1.6,0.2,2.4c-8.1,2.7-14,10.4-14,19.5c0,11.3,9.1,20.4,20.3,20.6l5.9,0.2h49v-0.2
		c13-0.3,23.7-11.1,23.7-24.3C-601.1,564.5-610.9,554.1-623.4,553z M-626.8,591.6c0,0.7-0.5,1.2-1.2,1.2h-42.6
		c-0.7,0-1.2-0.5-1.2-1.2v-27.7c0-0.7,0.5-1.2,1.2-1.2h42.6c0.7,0,1.2,0.5,1.2,1.2V591.6z"/>
	<g id="_x39_0255646-096c-4627-ae17-96ec3e2e9978.psd_4_">
		<g id="Polygon_1_4_">
			<g id="XMLID_101_">
				<path id="XMLID_102_" d="M-639.5,577.4l-14.6-7.3c-0.4-0.2-0.9,0.1-0.9,0.5v14.7c0,0.4,0.5,0.7,0.9,0.5l14.6-7.3
					C-639,578.2-639,577.6-639.5,577.4z"/>
			</g>
		</g>
	</g>
</g>
</svg>
