<?xml version="1.0" encoding="utf-8"?>
<!-- Generator: Adobe Illustrator 18.1.1, SVG Export Plug-In . SVG Version: 6.00 Build 0)  -->
<svg version="1.1" id="Layer_1" xmlns="http://www.w3.org/2000/svg" xmlns:xlink="http://www.w3.org/1999/xlink" x="0px" y="0px"
	 width="100px" height="87.5px" viewBox="-249 357.5 100 87.5" enable-background="new -249 357.5 100 87.5" xml:space="preserve">
<path d="M-152,382.5c1.7,0,3-1.4,3-3v-19c0-1.6-1.3-3-3-3h-94c-1.6,0-3,1.4-3,3v19c0,1.6,1.4,3,3,3h6v6.2h-6c-1.6,0-3,1.3-3,3v19
	c0,1.7,1.4,3,3,3h6v6.3h-6c-1.6,0-3,1.3-3,3v19c0,1.7,1.4,3,3,3h94c1.7,0,3-1.3,3-3v-19c0-1.7-1.3-3-3-3h-6v-6.3h6c1.7,0,3-1.3,3-3
	v-19c0-1.7-1.3-3-3-3h-6v-6.2H-152z M-223.4,366.2c2.1,0,3.8,1.7,3.8,3.8s-1.7,3.8-3.8,3.8c-2.1,0-3.8-1.7-3.8-3.8
	S-225.5,366.2-223.4,366.2z M-237.1,436.3c-2.1,0-3.8-1.7-3.8-3.8s1.7-3.8,3.8-3.8c2.1,0,3.8,1.7,3.8,3.8S-235,436.3-237.1,436.3z
	 M-237.1,405.1c-2.1,0-3.8-1.7-3.8-3.8s1.7-3.8,3.8-3.8c2.1,0,3.8,1.7,3.8,3.8S-235,405.1-237.1,405.1z M-237.1,373.8
	c-2.1,0-3.8-1.7-3.8-3.8s1.7-3.8,3.8-3.8c2.1,0,3.8,1.7,3.8,3.8S-235,373.8-237.1,373.8z M-223.4,436.3c-2.1,0-3.8-1.7-3.8-3.8
	s1.7-3.8,3.8-3.8c2.1,0,3.8,1.7,3.8,3.8S-221.3,436.3-223.4,436.3z M-165,420h-68v-6.3h68V420z M-227.2,401.3c0-2.1,1.7-3.8,3.8-3.8
	c2.1,0,3.8,1.7,3.8,3.8s-1.7,3.8-3.8,3.8C-225.5,405.1-227.2,403.4-227.2,401.3z M-165,388.7h-68v-6.2h68V388.7z"/>
</svg>
