<?xml version="1.0" encoding="utf-8"?>
<!-- Generator: Adobe Illustrator 18.1.1, SVG Export Plug-In . SVG Version: 6.00 Build 0)  -->
<svg version="1.1" id="Layer_1" xmlns="http://www.w3.org/2000/svg" xmlns:xlink="http://www.w3.org/1999/xlink" x="0px" y="0px"
	 width="100.2px" height="100px" viewBox="49.3 53.6 100.2 100" style="enable-background:new 49.3 53.6 100.2 100;"
	 xml:space="preserve">
<path d="M142.2,82h-7.1v64.5c0,4-3.1,7.1-7.1,7.1H70.6c-4,0-7.1-3.1-7.1-7.1V82h-7.1c-4,0-7.1-3.1-7.1-7.1c0-4,3.1-7.1,7.1-7.1h14.4
	v-7.1c0-4,3.1-7.1,7.1-7.1h43c4,0,7.1,3.1,7.1,7.1v7.1h14.4c4,0,7.1,3.1,7.1,7.1C149.3,78.9,146.1,82,142.2,82z M77.7,139.2h43V89.1
	h-43V139.2z"/>
</svg>
