<?xml version="1.0" encoding="utf-8"?>
<!-- Generator: Adobe Illustrator 18.1.1, SVG Export Plug-In . SVG Version: 6.00 Build 0)  -->
<svg version="1.1" id="Layer_1" xmlns="http://www.w3.org/2000/svg" xmlns:xlink="http://www.w3.org/1999/xlink" x="0px" y="0px"
	 width="84.9px" height="100px" viewBox="437.6 460 84.9 100" enable-background="new 437.6 460 84.9 100" xml:space="preserve">
<title>developer</title>
<path d="M519.7,482.8l-36.8-22.1c-1.8-0.9-3.9-0.9-5.6,0l-36.8,22.1c-1.7,1.2-2.8,3-2.9,5.1v44.2c0.1,2.1,1.2,3.9,2.9,5.1l36.9,22.1
	c1.8,0.9,3.9,0.9,5.7,0l36.7-22.1c1.6-1.2,2.6-3.1,2.7-5.1v-44.2C522.4,485.9,521.4,484,519.7,482.8z M500.7,488
	c-0.5,2.2-7.6,28.6-8.4,31.3c-0.8,2.8-1.7,5.6-2.7,8.3c-0.5,1.3-1,2.6-1.7,3.8c-0.5,0.9-1.2,1.6-2,2.2c-1.1,0.7-2.5,0.7-3.7,0.2
	c-1.1-0.5-1.9-1.5-2.3-2.6c-0.5-1.2-0.7-2.5-0.7-3.8c0-5.3,0.4-19.1,0.4-19.1c0-0.8-0.2-0.9-0.5-0.1c0,0-3.4,8.2-4.7,10.8
	c-0.6,1.2-1.2,2.4-2,3.5c-0.3,0.5-0.8,0.9-1.3,1.2c-0.4,0.2-0.7,0.3-1.1,0.4c-0.8,0.1-1.6-0.1-2.3-0.6c-0.6-0.6-1.1-1.3-1.3-2.1
	c-0.3-1.6-0.5-3.2-0.4-4.8c0-3.4,0.2-11,0.2-11c0-0.8-0.2-0.9-0.5-0.1c0,0-2.7,7.7-3.2,9c-0.4,1.1-0.9,2.4-2,3
	c-1,0.5-2.3,0.1-2.8-0.9c0-0.1-0.1-0.1-0.1-0.2c-0.6-1.1-1.5-6.3-1.7-7.6c-0.1-0.4-0.1-0.9-0.1-1.3c0.1-0.5,0.4-0.9,0.9-1.1
	c0.5-0.2,1.1,0,1.4,0.4c0.2,0.3,0.4,0.7,0.5,1.1c0.4,1.2,0.7,2.2,0.7,2.2l0.2,0.7c0.1,0.4,0.3,0.4,0.4,0l0.2-0.7
	c0,0,2.2-7.5,2.6-8.8c0.7-2.1,1.8-5.4,4.5-5.2c2.8,0.2,3.3,3.9,3.5,6.1c0.1,1.5,0.3,7.7,0.3,7.7c0,0.8,0.2,0.9,0.5,0.1
	c0,0,4.7-14.4,5.5-15.9c0.5-1.2,1.4-2.2,2.4-2.9c1-0.7,2.2-1,3.4-0.8c2.5,0.4,4.3,2.6,4.3,6.4c0,7-0.1,15.5-0.1,15.5
	c0,0.8,0.2,0.9,0.5,0.1c0,0,9.7-24.4,10.1-25.2c0.3-0.8,1.2-1.1,2-0.8c0.5,0.2,0.9,0.7,0.9,1.3C500.8,487.5,500.7,487.7,500.7,488z"
	/>
</svg>
