<svg version="1.1" xmlns="http://www.w3.org/2000/svg" xmlns:xlink="http://www.w3.org/1999/xlink" x="0px" y="0px"
	 width="53.4px" height="100px" viewBox="0 0 53.4 100" style="enable-background:new 0 0 53.4 100;" xml:space="preserve">
<g>
	<path d="M45.3,0H8.1C3.6,0,0,3.6,0,8v84c0,4.4,3.6,8,8.1,8h37.2c4.5,0,8.1-3.6,8.1-8V8C53.4,3.6,49.7,0,45.3,0z M21.6,5.5h10.2v0.8
		H21.6V5.5z M26.4,95.7c-2.2,0-4.1-1.8-4.1-4.1c0-2.2,1.8-4.1,4.1-4.1c2.2,0,4.1,1.8,4.1,4.1C30.4,93.9,28.6,95.7,26.4,95.7z
		 M49.2,83.8h-45V12.1h45V83.8z"/>
</g>
</svg>
