<svg version="1.1" xmlns="http://www.w3.org/2000/svg" xmlns:xlink="http://www.w3.org/1999/xlink" x="0px" y="0px"
	 width="100px" height="64.3px" viewBox="0 0 100 64.3" style="enable-background:new 0 0 100 64.3;" xml:space="preserve">
<g>
	<path d="M94.7,0H5.3C2.4,0,0,2.4,0,5.3v53.6c0,2.9,2.4,5.3,5.3,5.3h89.3c2.9,0,5.3-2.4,5.3-5.3V5.3C100,2.4,97.6,0,94.7,0z
		 M8.4,35.6c-1.9,0-3.5-1.6-3.5-3.5c0-1.9,1.6-3.5,3.5-3.5s3.5,1.6,3.5,3.5C11.9,34.1,10.4,35.6,8.4,35.6z M90.6,60.1H16.3V4.2h74.4
		V60.1z M95.9,36.7h-1v-9h1V36.7z"/>
</g>
</svg>
