<?xml version="1.0" encoding="utf-8"?>
<!-- Generator: Adobe Illustrator 18.1.1, SVG Export Plug-In . SVG Version: 6.00 Build 0)  -->
<svg version="1.1" id="Layer_1" xmlns="http://www.w3.org/2000/svg" xmlns:xlink="http://www.w3.org/1999/xlink" x="0px" y="0px"
	 width="93.2px" height="100px" viewBox="38.4 20.8 93.2 100" style="enable-background:new 38.4 20.8 93.2 100;"
	 xml:space="preserve">
<path d="M125.2,120.8H45c-3.7,0-6.6-2.9-6.6-6.6V87.5c0-3.7,2.9-6.6,6.6-6.6s6.6,2.9,6.6,6.6v20h66.7v-20c0-3.7,2.9-6.6,6.6-6.6
	c3.7,0,6.6,2.9,6.6,6.6v26.7C131.8,117.9,128.9,120.8,125.2,120.8z M89.2,82.5c-2.3,2.1-6,2.1-8.4,0L60,63.4c-2.3-2.1-2.3-5.4,0-7.6
	c2.3-2.1,6-2.1,8.4,0l9.9,9.1V27.4c0-3.7,2.9-6.6,6.6-6.6s6.6,2.9,6.6,6.6v37.4l9.9-9.1c2.3-2.1,6-2.1,8.4,0c2.3,2.1,2.3,5.4,0,7.6
	L89.2,82.5z"/>
</svg>
