<?xml version="1.0" encoding="utf-8"?>
<!-- Generator: Adobe Illustrator 18.1.1, SVG Export Plug-In . SVG Version: 6.00 Build 0)  -->
<svg version="1.1" id="Layer_1" xmlns="http://www.w3.org/2000/svg" xmlns:xlink="http://www.w3.org/1999/xlink" x="0px" y="0px"
	 width="100px" height="87.5px" viewBox="0 0 100 87.5" enable-background="new 0 0 100 87.5" xml:space="preserve">
<path d="M6.2,0h87.5c3.5,0,6.2,2.8,6.2,6.2s-2.8,6.2-6.2,6.2H6.2C2.8,12.5,0,9.7,0,6.2S2.8,0,6.2,0z"/>
<path d="M6.2,37.5h87.5c3.5,0,6.2,2.8,6.2,6.2c0,3.5-2.8,6.2-6.2,6.2H6.2C2.8,50,0,47.2,0,43.8C0,40.3,2.8,37.5,6.2,37.5z"/>
<path d="M6.2,75h87.5c3.5,0,6.2,2.8,6.2,6.2c0,3.5-2.8,6.2-6.2,6.2H6.2c-3.5,0-6.2-2.8-6.2-6.2C0,77.8,2.8,75,6.2,75z"/>
</svg>
