<?xml version="1.0" encoding="utf-8"?>
<!-- Generator: Adobe Illustrator 18.1.1, SVG Export Plug-In . SVG Version: 6.00 Build 0)  -->
<svg version="1.1" id="Layer_1" xmlns="http://www.w3.org/2000/svg" xmlns:xlink="http://www.w3.org/1999/xlink" x="0px" y="0px"
	 width="100px" height="78.9px" viewBox="0 0 100 78.9" enable-background="new 0 0 100 78.9" xml:space="preserve">
<path fill-rule="evenodd" clip-rule="evenodd" d="M94.7,78.9H26.3c-2.9,0-5.3-2.4-5.3-5.3V57.9H5.3c-2.9,0-5.3-2.4-5.3-5.3V5.3
	C0,2.4,2.4,0,5.3,0h68.4c2.9,0,5.3,2.4,5.3,5.3v15.8h15.8c2.9,0,5.3,2.4,5.3,5.3v47.4C100,76.6,97.6,78.9,94.7,78.9z M68.4,15.8
	c0-2.9-2.4-5.3-5.3-5.3H15.8c-2.9,0-5.3,2.4-5.3,5.3v26.3c0,2.9,2.4,5.3,5.3,5.3h5.3V26.3c0-2.9,2.4-5.3,5.3-5.3h42.1V15.8z
	 M89.5,36.8c0-2.9-2.4-5.3-5.3-5.3H36.8c-2.9,0-5.3,2.4-5.3,5.3v26.3c0,2.9,2.4,5.3,5.3,5.3h47.4c2.9,0,5.3-2.4,5.3-5.3V36.8z
	 M71.1,52.6h-7.9v7.9c0,1.5-1.2,2.6-2.6,2.6c-1.5,0-2.6-1.2-2.6-2.6v-7.9H50c-1.5,0-2.6-1.2-2.6-2.6c0-1.5,1.2-2.6,2.6-2.6h7.9v-7.9
	c0-1.5,1.2-2.6,2.6-2.6c1.5,0,2.6,1.2,2.6,2.6v7.9h7.9c1.5,0,2.6,1.2,2.6,2.6C73.7,51.5,72.5,52.6,71.1,52.6z"/>
</svg>
