<?xml version="1.0" encoding="utf-8"?>
<!-- Generator: Adobe Illustrator 18.1.1, SVG Export Plug-In . SVG Version: 6.00 Build 0)  -->
<svg version="1.1" id="Layer_1" xmlns="http://www.w3.org/2000/svg" xmlns:xlink="http://www.w3.org/1999/xlink" x="0px" y="0px"
	 width="175.5px" height="100px" viewBox="0 5.2 175.5 100" style="enable-background:new 0 5.2 175.5 100;" xml:space="preserve">
<g>
	<path d="M116.2,6.4c3.9,2.3,5.3,7.2,3,11.1l-48.8,83.8c-2.3,3.9-7.2,5.1-11.1,3c-3.9-2.3-5.3-7.2-3-11.1l48.8-83.8
		C107.2,5.3,112.3,4.1,116.2,6.4z"/>
	<path d="M143.9,23.2l29.2,29.2c3.2,3.2,3.2,8.4,0,11.6l-29.2,29.2c-3.2,3.2-8.4,3.2-11.8,0c-3.2-3.2-3.2-8.4,0-11.6l23.4-23.4
		l-23.4-23.4c-3.2-3.2-3.2-8.4,0-11.6C135.5,19.9,140.6,19.9,143.9,23.2z"/>
	<path d="M43.3,23.2c3.2,3.2,3.2,8.4,0,11.6L19.9,58.2l23.4,23.4c3.2,3.2,3.2,8.4,0,11.6c-3.2,3.2-8.4,3.2-11.8,0L2.4,64
		c-3.2-3.2-3.2-8.4,0-11.6l29.2-29.2C34.9,19.9,40,19.9,43.3,23.2z"/>
</g>
</svg>
