<?xml version="1.0" encoding="utf-8"?>
<!-- Generator: Adobe Illustrator 18.1.1, SVG Export Plug-In . SVG Version: 6.00 Build 0)  -->
<svg version="1.1" id="Layer_1" xmlns="http://www.w3.org/2000/svg" xmlns:xlink="http://www.w3.org/1999/xlink" x="0px" y="0px"
	 width="100.2px" height="100px" viewBox="35.9 260 100.2 100" style="enable-background:new 35.9 260 100.2 100;"
	 xml:space="preserve">
<path d="M128.2,321.5c-4.2,0-7.7-3.5-7.7-7.7v-31.2l-36.7,36.7c-2.9,2.9-7.9,2.9-10.8,0c-2.9-2.9-2.9-7.9,0-10.8l32.9-32.9H82.1
	c-4.2,0-7.7-3.5-7.7-7.7c0-4.2,3.5-7.7,7.7-7.7h46.2c4.2,0,7.7,3.5,7.7,7.7V314C135.9,318.1,132.4,321.5,128.2,321.5z M112.8,352.3
	c0,4.2-3.5,7.7-7.7,7.7H43.6c-4.2,0-7.7-3.5-7.7-7.7v-53.8c0-4.2,3.5-7.7,7.7-7.7s7.7,3.5,7.7,7.7v46.2h53.8
	C109.4,344.6,112.8,348.1,112.8,352.3z"/>
</svg>
