<?xml version="1.0" encoding="utf-8"?>
<!-- Generator: Adobe Illustrator 18.1.1, SVG Export Plug-In . SVG Version: 6.00 Build 0)  -->
<svg version="1.1" id="Layer_1" xmlns="http://www.w3.org/2000/svg" xmlns:xlink="http://www.w3.org/1999/xlink" x="0px" y="0px"
	 width="100px" height="100px" viewBox="0 0 100 100" style="enable-background:new 0 0 100 100;" xml:space="preserve">
<path d="M50,9.3c22.5,0,40.7,18.3,40.7,40.7S72.5,90.7,50,90.7S9.3,72.5,9.3,50S27.5,9.3,50,9.3 M50,0C22.4,0,0,22.4,0,50
	s22.4,50,50,50s50-22.4,50-50S77.6,0,50,0L50,0z"/>
<g>
	<path d="M49.7,56.3c3.2,0,4.9-3,4.9-6.2l0.9-22.6c0-3.2-2.6-5.8-5.8-5.8s-5.8,2.6-5.8,5.8l0.9,23.5C44.8,54.1,46.5,56.3,49.7,56.3z
		"/>
	<circle cx="49.7" cy="68.2" r="5.8"/>
</g>
</svg>
