<?xml version="1.0" encoding="utf-8"?>
<!-- Generator: Adobe Illustrator 18.1.1, SVG Export Plug-In . SVG Version: 6.00 Build 0)  -->
<svg version="1.1" id="Layer_1" xmlns="http://www.w3.org/2000/svg" xmlns:xlink="http://www.w3.org/1999/xlink" x="0px" y="0px"
	 width="100px" height="100px" viewBox="0 0 100 100" style="enable-background:new 0 0 100 100;" xml:space="preserve">
<path d="M70.8,66.6L53,49.4V25c0-2.7-1.8-4.8-4.5-4.8S44,22.3,44,25v26.4c0,0,0.3,0.1,0.3,0.1c0,0.3,0.2,0.6,0.2,0.9
	c0,0.1,0.1,0.2,0.2,0.3c0.1,0.2,0.1,0.4,0.2,0.6c0,0.1,0.1,0.1,0.1,0.2c0.2,0.5,0.5,1,0.9,1.4l18.7,18.7c1.9,1.9,4.7,1.9,6.5,0
	C73,71.6,72.7,68.5,70.8,66.6z"/>
<path d="M50,9.3c22.5,0,40.7,18.3,40.7,40.7S72.5,90.7,50,90.7S9.3,72.5,9.3,50S27.5,9.3,50,9.3 M50,0C22.4,0,0,22.4,0,50
	s22.4,50,50,50s50-22.4,50-50S77.6,0,50,0L50,0z"/>
</svg>
