<?xml version="1.0" encoding="utf-8"?>
<!-- Generator: Adobe Illustrator 18.1.1, SVG Export Plug-In . SVG Version: 6.00 Build 0)  -->
<svg version="1.1" id="Layer_1" xmlns="http://www.w3.org/2000/svg" xmlns:xlink="http://www.w3.org/1999/xlink" x="0px" y="0px"
	 width="100px" height="100px" viewBox="-41 272 100 100" style="enable-background:new -41 272 100 100;" xml:space="preserve">
<path d="M9,272c-27.7,0-50,22.3-50,50s22.3,50,50,50s50-22.3,50-50S36.7,272,9,272z M10.9,354.1c-2.9,0-5.4-2.5-5.4-5.4
	s2.5-5.4,5.4-5.4s5.4,2.5,5.4,5.4S13.8,354.1,10.9,354.1z M26.7,319.7c-1,1.5-2.9,3.1-5.6,5.4l-2.7,2.1c-1.5,1.2-1.7,3.8-2.3,5.4
	c-0.2,1,0,0,0,3.5H5.5c0.2-3.5-0.4-7.5,0.2-9.2c0.6-1.7,2.3-3.8,5.2-6l2.7-2.1c0.8-0.6,1.7-1.5,2.3-2.3c1-1.5,1.5-2.9,1.5-4.6
	c0-1.9-0.6-3.5-1.7-5.2c-1-1.7-3.1-2.3-6.2-2.3c-2.9,0-5,1.5-6.2,3.3s-1.9,3.3-1.9,6.9h-11c0.2-7.1,2.9-13.3,7.7-16.2
	c3.1-1.9,6.7-3.8,11.2-3.8c5.8,0,10.6,1.5,14.4,4.2s5.8,6.9,5.8,12.3C29.2,314.7,28.4,317.4,26.7,319.7z"/>
</svg>
