<?xml version="1.0" encoding="utf-8"?>
<!-- Generator: Adobe Illustrator 18.1.1, SVG Export Plug-In . SVG Version: 6.00 Build 0)  -->
<svg version="1.1" id="Layer_1" xmlns="http://www.w3.org/2000/svg" xmlns:xlink="http://www.w3.org/1999/xlink" x="0px" y="0px"
	 width="100px" height="46px" viewBox="-349 278 100 46" enable-background="new -349 278 100 46" xml:space="preserve">
<path id="XMLID_23_" d="M-306.6,313h7.4c0.5,0,1,0.3,1.3-0.1l5.1-6.1c0.6-0.8,1.8-0.9,2.5-0.1l4.2,4.2c0.7,0.7,1.7,0.7,2.4,0
	l4.3-4.3c0.7-0.7,1.7-0.7,2.4,0l4.4,4.4c0.7,0.7,1.7,0.7,2.4,0l4.4-4.4c0.7-0.7,1.7-0.7,2.4,0l4.3,4.3c0.7,0.7,1.8,0.6,2.4-0.1
	l7.4-8.3c0.6-0.6,0.6-1.7,0-2.3l-8.1-9.3c-0.3-0.4-0.8-0.8-1.3-0.8h-46.9c-3.9-6.1-11.5-12.1-20.3-12.1c-12.8,0-23.1,10.6-23.1,23.3
	c0,12.8,10.3,22.7,23.1,22.7C-317.8,324-310.7,320-306.6,313z M-335.9,295.5c3.3,0,6,2.7,6,6s-2.7,6-6,6c-3.3,0-6-2.7-6-6
	S-339.2,295.5-335.9,295.5z"/>
</svg>
