<?xml version="1.0" encoding="utf-8"?>
<!-- Generator: Adobe Illustrator 22.0.0, SVG Export Plug-In . SVG Version: 6.00 Build 0)  -->
<svg version="1.1" id="Layer_1" xmlns="http://www.w3.org/2000/svg" xmlns:xlink="http://www.w3.org/1999/xlink" x="0px" y="0px"
	 width="76.2px" height="100px" viewBox="0 0 76.2 100" style="enable-background:new 0 0 76.2 100;" xml:space="preserve">
<path d="M75,85.5L57.2,47.3c-1.7-3.7-3.2-10.4-3.2-14.5V13.5c0-0.1,0.1-0.2,0.2-0.3C55.9,12,57,9.9,57,7.7V7.3c0-4-3.4-7.3-7.5-7.3
	H27.3c-3.9,0-7.1,3.1-7.1,6.9v0.8c0,2.3,1.2,4.3,2.9,5.5c0.1,0.1,0.2,0.2,0.2,0.3v19.4c0,4-1.6,10.8-3.4,14.4L1.2,85.5
	c-1.7,3.5-1.7,7.2,0.2,10c1.9,2.8,5.3,4.5,9.3,4.5h54.6c4,0,7.5-1.6,9.3-4.5C76.6,92.7,76.7,89,75,85.5z M65.4,95.2H10.7
	c-4.9,0-7.2-3.5-5.1-7.8l18.8-38.2c2.1-4.3,3.8-11.6,3.8-16.4V10.2c0-0.2-0.2-0.4-0.4-0.4h-0.5c-1.2,0-2.2-1-2.2-2.2V6.8
	c0-1.2,1-2.2,2.2-2.2h22.2c1.5,0,2.7,1.1,2.7,2.6c0,1.4-1.2,2.6-2.7,2.6h0c-0.2,0-0.4,0.2-0.4,0.4v22.6c0,4.7,1.7,12.2,3.7,16.4
	l17.9,38.1C72.6,91.7,70.3,95.2,65.4,95.2z"/>
<path d="M58.8,71.8c-3.6-7.8-11.7-12.8-20.5-12.8c-8.7,0-16.6,4.8-20.3,12.4L10,87.7c-0.5,1.1-0.6,2-0.2,2.6
	c0.4,0.6,1.3,0.9,2.5,0.9h51.4c1.2,0,2.2-0.4,2.6-1c0.4-0.6,0.3-1.6-0.2-2.7L58.8,71.8z"/>
</svg>
