<?xml version="1.0" encoding="utf-8"?>
<!-- Generator: Adobe Illustrator 22.0.0, SVG Export Plug-In . SVG Version: 6.00 Build 0)  -->
<svg version="1.1" id="Layer_1" xmlns="http://www.w3.org/2000/svg" xmlns:xlink="http://www.w3.org/1999/xlink" x="0px" y="0px"
	 width="100px" height="122.7px" viewBox="0 0 100 122.7" style="enable-background:new 0 0 100 122.7;" xml:space="preserve">
<path d="M15.9,49.2c0-1.1-0.9-2-2.1-2H2.1c-1.1,0-2.1,0.9-2.1,2c0,1.1,0.9,2,2.1,2h11.7C15,51.3,15.9,50.4,15.9,49.2z"/>
<path d="M97.9,47.2H86.2c-1.1,0-2.1,0.9-2.1,2c0,1.1,0.9,2,2.1,2h11.7c1.1,0,2.1-0.9,2.1-2C100,48.1,99.1,47.2,97.9,47.2z"/>
<path d="M47.9,2v11.6c0,1.1,0.9,2,2.1,2s2.1-0.9,2.1-2V2c0-1.1-0.9-2-2.1-2S47.9,0.9,47.9,2z"/>
<path d="M82.4,14.4l-8.3,8.2c-0.8,0.8-0.8,2.1,0,2.9c0.4,0.4,0.9,0.6,1.5,0.6c0.5,0,1.1-0.2,1.5-0.6l8.3-8.2c0.8-0.8,0.8-2.1,0-2.9
	C84.5,13.6,83.2,13.6,82.4,14.4z"/>
<path d="M22.9,73l-8.3,8.2c-0.8,0.8-0.8,2.1,0,2.9c0.4,0.4,0.9,0.6,1.5,0.6c0.5,0,1.1-0.2,1.5-0.6l8.3-8.2c0.8-0.8,0.8-2.1,0-2.9
	C25.1,72.2,23.8,72.2,22.9,73z"/>
<path d="M17.6,14.4c-0.8-0.8-2.1-0.8-2.9,0c-0.8,0.8-0.8,2.1,0,2.9l8.3,8.2c0.4,0.4,0.9,0.6,1.5,0.6c0.5,0,1.1-0.2,1.5-0.6
	c0.8-0.8,0.8-2.1,0-2.9L17.6,14.4z"/>
<path d="M77,73c-0.8-0.8-2.1-0.8-2.9,0c-0.8,0.8-0.8,2.1,0,2.9l8.3,8.2c0.4,0.4,0.9,0.6,1.5,0.6c0.5,0,1.1-0.2,1.5-0.6
	c0.8-0.8,0.8-2.1,0-2.9L77,73z"/>
<path d="M50,21.8c-1.1,0-2.3,0.1-3.4,0.2c-13.8,1.5-24.9,12.5-26.3,26.1c-1,9.2,2.3,18.2,9.1,24.5c4.8,4.5,7.5,10.8,7.5,17.5v16.4
	c0,4,2.7,7.4,6.3,8.7v0.9c0,3.6,3,6.6,6.7,6.6s6.7-3,6.7-6.6v-0.9c3.7-1.2,6.5-4.6,6.5-8.7V90.1c0-6.6,2.8-12.9,7.8-17.8
	c5.8-5.6,9-13.1,9-21C79.9,35.1,66.5,21.8,50,21.8z M51.1,116.1c0,0.7-0.5,1.2-1.2,1.2c-0.7,0-1.2-0.5-1.2-1.2v-0.5h2.4V116.1z
	 M53.8,110.2h-7.7c-2.1,0-3.8-1.7-3.8-3.7v-6h15.2v6C57.6,108.5,55.9,110.2,53.8,110.2z M67.1,68.5C61,74.3,57.6,82,57.6,90.1v6.4
	h-5.2V60.6h7.8c1.1,0,2.1-0.9,2.1-2c0-1.1-0.9-2-2.1-2H41.7c-1.1,0-2.1,0.9-2.1,2c0,1.1,0.9,2,2.1,2h6.6v35.8h-5.9v-6.4
	c0-8.1-3.4-15.9-9.2-21.4c-5.5-5.2-8.3-12.5-7.4-20c1.2-11.1,10.2-20,21.5-21.2c0.9-0.1,1.9-0.2,2.8-0.2c13.5,0,24.4,10.8,24.4,24
	C74.4,57.8,71.8,63.9,67.1,68.5z"/>
</svg>
