<?xml version="1.0" encoding="utf-8"?>
<!-- Generator: Adobe Illustrator 18.1.1, SVG Export Plug-In . SVG Version: 6.00 Build 0)  -->
<svg version="1.1" id="Layer_1" xmlns="http://www.w3.org/2000/svg" xmlns:xlink="http://www.w3.org/1999/xlink" x="0px" y="0px"
	 width="100px" height="99.7px" viewBox="0 0 100 99.7" enable-background="new 0 0 100 99.7" xml:space="preserve">
<path d="M43.6,26.5L35.1,18c-4.7-4.7-12.3-4.7-17,0c-4.7,4.7-4.7,12.3,0,16.9l17,16.9c4.7,4.7,12.2,4.7,16.9,0.1l8.5,8.5l-4.2,4.2
	c-7,7-18.5,7-25.5,0L5.3,39.2c-7-7-7-18.4,0-25.4l8.5-8.5c7-7,18.5-7,25.5,0L52.1,18L43.6,26.5z"/>
<path d="M56.4,73.2l8.5,8.5c4.7,4.7,12.3,4.7,17,0c4.7-4.7,4.7-12.3,0-16.9l-17-16.9c-4.7-4.7-12.2-4.7-16.9-0.1l-8.5-8.5l4.2-4.2
	c7-7,18.5-7,25.5,0l25.5,25.4c7,7,7,18.4,0,25.4l-8.5,8.5c-7,7-18.5,7-25.5,0L47.9,81.7L56.4,73.2z"/>
</svg>
