<?xml version="1.0" encoding="utf-8"?>
<!-- Generator: Adobe Illustrator 21.1.0, SVG Export Plug-In . SVG Version: 6.00 Build 0)  -->
<svg version="1.1" id="Layer_1" xmlns="http://www.w3.org/2000/svg" xmlns:xlink="http://www.w3.org/1999/xlink" x="0px" y="0px"
	 width="100px" height="46.8px" viewBox="0 0 100 46.8" style="enable-background:new 0 0 100 46.8;" xml:space="preserve">
<path d="M0,7.1v32.6c0,3.9,3.2,7.1,7.1,7.1h85.8c3.9,0,7.1-3.2,7.1-7.1V7.1c0-3.9-3.2-7.1-7.1-7.1H7.1C3.2,0,0,3.2,0,7.1z M4,23.4
	c0-0.6,0.5-1.1,1.1-1.1s1.1,0.5,1.1,1.1c0,0.6-0.5,1.1-1.1,1.1S4,24,4,23.4z M7.7,26.9v-7c0-0.5,0.5-1,1-1c0.5,0,1,0.5,1,1v7
	c0,0.5-0.5,1-1,1C8.1,27.9,7.7,27.5,7.7,26.9z M97.2,23.7c0,2.5-2.1,4.5-4.6,4.5c-2.5,0-4.6-2-4.6-4.5c0-2.5,2.1-4.5,4.6-4.5
	C95.1,19.2,97.2,21.2,97.2,23.7z M85.6,3.7v39.5H14.4V3.7H85.6z"/>
<path d="M90.6,25.1v-2.8c0-0.3,0.3-0.6,0.6-0.6H94c0.3,0,0.6,0.3,0.6,0.6v2.8c0,0.3-0.3,0.6-0.6,0.6h-2.8
	C90.9,25.7,90.6,25.4,90.6,25.1z"/>
</svg>
