<?xml version="1.0" encoding="utf-8"?>
<!-- Generator: Adobe Illustrator 21.1.0, SVG Export Plug-In . SVG Version: 6.00 Build 0)  -->
<svg version="1.1" id="Layer_1" xmlns="http://www.w3.org/2000/svg" xmlns:xlink="http://www.w3.org/1999/xlink" x="0px" y="0px"
	 width="31px" height="60px" viewBox="0 0 31 60" style="enable-background:new 0 0 31 60;" xml:space="preserve">
<g>
	<path d="M11.8,52.6C7.3,52.3,3.1,51,0.4,49.2v-9.5c3.4,2.6,7.9,4.8,13,4.8c4.2,0,7.7-1.3,7.7-5c0-3.4-2.9-4.8-7.9-6.1
		C3.9,31,0,27.3,0,19.7c0-7.1,5.3-11.9,12.2-13V0h7.4v6.9c3.4,0.5,6.3,1.6,8.7,3.2v9.3c-3.7-2.9-7.4-4.5-12.4-4.5
		c-4,0-6.3,1.9-6.3,4.5c0,3.4,2.6,4.5,8.2,5.8c9.3,2.4,13.2,6.3,13.2,14c0,7.4-5,11.4-11.6,13V60H12L11.8,52.6z"/>
</g>
</svg>
