<?xml version="1.0" encoding="utf-8"?>
<!-- Generator: Adobe Illustrator 18.1.1, SVG Export Plug-In . SVG Version: 6.00 Build 0)  -->
<svg version="1.1" id="Layer_1" xmlns="http://www.w3.org/2000/svg" xmlns:xlink="http://www.w3.org/1999/xlink" x="0px" y="0px"
	 width="100px" height="78.9px" viewBox="0 0 100 78.9" enable-background="new 0 0 100 78.9" xml:space="preserve">
<path fill-rule="evenodd" clip-rule="evenodd" fill="#231F20" d="M89.5,57.9h-5.3V36.8H15.8v21.1h-5.3C4.7,57.9,0,53.2,0,47.4V31.6
	c0-5.8,4.7-10.5,10.5-10.5h78.9c5.8,0,10.5,4.7,10.5,10.5v15.8C100,53.2,95.3,57.9,89.5,57.9z M21.1,0h57.9v15.8H21.1V0z M78.9,78.9
	H21.1V42.1h57.9V78.9z M68.4,52.6H31.6v5.3h36.8V52.6z M68.4,63.2H31.6v5.3h36.8V63.2z"/>
</svg>
