<?xml version="1.0" encoding="utf-8"?>
<!-- Generator: Adobe Illustrator 21.1.0, SVG Export Plug-In . SVG Version: 6.00 Build 0)  -->
<svg version="1.1" id="Layer_1" xmlns="http://www.w3.org/2000/svg" xmlns:xlink="http://www.w3.org/1999/xlink" x="0px" y="0px"
	 width="100px" height="100px" viewBox="0 0 100 100" style="enable-background:new 0 0 100 100;" xml:space="preserve">
<title>icon-publishArtboard 1</title>
<path d="M50,22.4C22.4,22.4,0,50,0,50s22.4,27.7,50,27.7S100,50,100,50S77.6,22.4,50,22.4z M50,74c-13.3,0-24-10.7-24-24
	s10.7-24,24-24s24,10.7,24,24S63.3,74,50,74z"/>
<path d="M63.6,49L44,39.1c-0.6-0.3-1.3-0.1-1.6,0.5c-0.1,0.2-0.1,0.3-0.1,0.5v19.7c0,0.6,0.6,1.2,1.2,1.1c0.2,0,0.3,0,0.5-0.1
	L63.6,51c0.6-0.3,0.7-1.1,0.4-1.6C63.9,49.2,63.7,49.1,63.6,49z"/>
</svg>
