<?xml version="1.0" encoding="utf-8"?>
<!-- Generator: Adobe Illustrator 18.1.1, SVG Export Plug-In . SVG Version: 6.00 Build 0)  -->
<svg version="1.1" id="Layer_1" xmlns="http://www.w3.org/2000/svg" xmlns:xlink="http://www.w3.org/1999/xlink" x="0px" y="0px"
	 width="93.2px" height="100px" viewBox="-162.6 380.8 93.2 100" style="enable-background:new -162.6 380.8 93.2 100;"
	 xml:space="preserve">
<path d="M-72.3,477.9c-3.9,3.9-9.9,3.9-13.8,0l-22.1-22.7c-4.9,2.1-10.1,3.3-15.5,3.3c-21.4,0-38.8-17.5-38.8-38.8
	s17.3-38.8,38.8-38.8S-85,398.3-85,419.6c0,8.9-3.1,17.3-8.2,23.9l21,20.6C-68.5,467.8-68.5,474-72.3,477.9z M-123.8,393.8
	c-14.4,0-25.8,11.7-25.8,25.8c0,14.4,11.7,25.8,25.8,25.8S-98,433.8-98,419.6C-98,405.3-109.6,393.8-123.8,393.8z"/>
</svg>
