<?xml version="1.0" encoding="utf-8"?>
<!-- Generator: Adobe Illustrator 21.1.0, SVG Export Plug-In . SVG Version: 6.00 Build 0)  -->
<svg version="1.1" id="Layer_1" xmlns="http://www.w3.org/2000/svg" xmlns:xlink="http://www.w3.org/1999/xlink" x="0px" y="0px"
	 width="100px" height="117.6px" viewBox="0 0 100 117.6" style="enable-background:new 0 0 100 117.6;" xml:space="preserve">
<g transform="translate(886 1713)">
	<path d="M-803.6-1630.6c-4.1,0.1-8,1.5-11.2,4.1l-36.5-22.9c0.5-1.5,0.7-3.1,0.6-4.7c0.1-1.6-0.1-3.2-0.6-4.7l36.5-22.9
		c3.2,2.6,7.1,4,11.2,4.1c9.6,0.2,17.5-7.4,17.6-17c0-0.2,0-0.4,0-0.6c0-9.7-7.9-17.6-17.6-17.6c-9.7,0-17.6,7.9-17.6,17.6
		c-0.1,1.6,0.1,3.2,0.6,4.7l-36.5,22.9c-3.2-2.6-7.1-4-11.2-4.1c-9.7,0-17.6,7.9-17.6,17.6c0,9.7,7.9,17.6,17.6,17.6
		c4.1-0.1,8-1.5,11.2-4.1l36.5,22.9c-0.5,1.5-0.7,3.1-0.6,4.7c0,9.7,7.9,17.6,17.6,17.6c9.7,0,17.6-7.9,17.6-17.6
		S-793.9-1630.6-803.6-1630.6z"/>
</g>
</svg>
