<?xml version="1.0" encoding="utf-8"?>
<!-- Generator: Adobe Illustrator 22.0.0, SVG Export Plug-In . SVG Version: 6.00 Build 0)  -->
<svg version="1.1" id="Layer_1" xmlns="http://www.w3.org/2000/svg" xmlns:xlink="http://www.w3.org/1999/xlink" x="0px" y="0px"
	 width="71.5px" height="100px" viewBox="0 0 71.5 100" style="enable-background:new 0 0 71.5 100;" xml:space="preserve">
<path d="M2.3,58.5c3.1-3.1,8.1-3.1,11.1,0l22.3,22.3L58,58.5c3.1-3.1,8.1-3.1,11.1,0c3.1,3.1,3.1,8.1,0,11.2l-27.9,28
	c-3.1,3.1-8.1,3.1-11.1,0l-27.9-28C-0.8,66.6-0.8,61.6,2.3,58.5z"/>
<path d="M2.3,30.3l27.9-28c3-3.1,8-3.1,11.1,0l27.9,28c3.1,3.1,3.1,8.1,0,11.2c-3,3.1-8,3.1-11.1,0L35.7,19.2L13.4,41.5
	c-3,3.1-8,3.1-11.1,0C-0.8,38.4-0.8,33.4,2.3,30.3z"/>
</svg>
