<?xml version="1.0" encoding="utf-8"?>
<!-- Generator: Adobe Illustrator 18.1.1, SVG Export Plug-In . SVG Version: 6.00 Build 0)  -->
<svg version="1.1" id="Layer_1" xmlns="http://www.w3.org/2000/svg" xmlns:xlink="http://www.w3.org/1999/xlink" x="0px" y="0px"
	 width="100px" height="100px" viewBox="0 0 100 100" enable-background="new 0 0 100 100" xml:space="preserve">
<path d="M99,84c-5.7,13.6-18.9,16-23.3,16c-1.3,0-21.1,1.1-49.7-26C3.1,52.2,0.3,28.8,0,24.3C-0.2,20,1,9.1,16,1
	c1.9-1,5.5-1.4,6.5-0.5c0.4,0.4,13,21.1,13.3,21.8c0.3,0.7,0.5,1.4,0.5,2c0,0.9-0.7,2.1-2,3.5c-1.3,1.4-2.8,2.7-4.4,3.9
	c-1.6,1.2-3,2.4-4.4,3.8c-1.3,1.3-2,2.4-2,3.3c0.1,2.2,1.9,10.1,15.7,22.2c13.8,12.1,20.4,15.5,21,15.7c0.6,0.2,1.2,0.4,1.6,0.4
	c0.9,0,1.9-0.7,3.3-2c1.3-1.3,5.8-7.4,7.2-8.8c1.4-1.3,2.6-2,3.5-2c0.7,0,1.3,0.2,2,0.5c0.7,0.3,21.4,12.4,21.8,12.8
	C100.5,78.7,99.8,82.1,99,84"/>
</svg>
