<?xml version="1.0" encoding="utf-8"?>
<!-- Generator: Adobe Illustrator 18.1.1, SVG Export Plug-In . SVG Version: 6.00 Build 0)  -->
<svg version="1.1" id="Layer_1" xmlns="http://www.w3.org/2000/svg" xmlns:xlink="http://www.w3.org/1999/xlink" x="0px" y="0px"
	 width="50px" height="27.8px" viewBox="-374 287.2 50 27.8" enable-background="new -374 287.2 50 27.8" xml:space="preserve">
<g>
	<g>
		<path d="M-359.1,287.2c-0.6,0-1.3,0.3-1.7,0.7l-12.5,12.5c-0.4,0.4-0.4,1,0,1.4l12.5,12.5c0.4,0.4,1.2,0.7,1.7,0.7h34.1
			c0.5,0,1-0.5,1-1v-25.8c0-0.6-0.5-1-1-1H-359.1z M-359.2,305.7c-2.3,0-4.2-1.9-4.2-4.2c0-2.3,1.9-4.2,4.2-4.2
			c2.3,0,4.2,1.9,4.2,4.2C-355,303.8-356.9,305.7-359.2,305.7z"/>
	</g>
</g>
</svg>
