<?xml version="1.0" encoding="utf-8"?>
<!-- Generator: Adobe Illustrator 22.0.0, SVG Export Plug-In . SVG Version: 6.00 Build 0)  -->
<svg version="1.1" id="Layer_1" xmlns="http://www.w3.org/2000/svg" xmlns:xlink="http://www.w3.org/1999/xlink" x="0px" y="0px"
	 width="68.8px" height="100px" viewBox="0 0 68.8 100" style="enable-background:new 0 0 68.8 100;" xml:space="preserve">
<g>
	<path d="M34.4,0C23,0,12.9,5.6,6.6,14.2l11.1,6.5c3.2-4.5,8.4-8.2,16.7-8.2c22.1,0,21.9,25,21.9,25H25.1H12.5H0
		c0,15.4,0,56.3,0,56.3c0,3.5,2.8,6.2,6.2,6.2h56.2c3.5,0,6.2-2.8,6.2-6.2c0,0,0-47.5,0-59.4C68.8,15.4,53.4,0,34.4,0z M37.5,74.4
		v13.1h-6.2V74.4c-3.6-1.3-6.2-4.7-6.2-8.8c0-5.2,4.2-9.4,9.4-9.4s9.4,4.2,9.4,9.4C43.8,69.7,41.1,73.1,37.5,74.4z"/>
</g>
</svg>
