<?xml version="1.0" encoding="utf-8"?>
<!-- Generator: Adobe Illustrator 18.1.1, SVG Export Plug-In . SVG Version: 6.00 Build 0)  -->
<svg version="1.1" id="Layer_1" xmlns="http://www.w3.org/2000/svg" xmlns:xlink="http://www.w3.org/1999/xlink" x="0px" y="0px"
	 width="100px" height="100px" viewBox="0 0 100 100" style="enable-background:new 0 0 100 100;" xml:space="preserve">
<path d="M54.9,26c-2.8-2.5-7.2-2.5-10,0L20,48.9c-2.8,2.5-2.8,6.6,0,9.2s7.2,2.5,10,0l12-11v45c0,4.4,3.6,8,8,8s8-3.6,8-8V47.2
	l11.9,10.9c2.8,2.5,7.2,2.5,10,0c2.8-2.5,2.8-6.6,0-9.2L54.9,26z"/>
<path d="M16,0h68c3.3,0,6,2.7,6,6c0,3.3-2.7,6-6,6H16c-3.3,0-6-2.7-6-6C10,2.7,12.7,0,16,0z"/>
</svg>
