<?xml version="1.0" encoding="utf-8"?>
<!-- Generator: Adobe Illustrator 18.1.1, SVG Export Plug-In . SVG Version: 6.00 Build 0)  -->
<svg version="1.1" id="Layer_1" xmlns="http://www.w3.org/2000/svg" xmlns:xlink="http://www.w3.org/1999/xlink" x="0px" y="0px"
	 width="96.4px" height="100px" viewBox="431.8 460.1 96.4 100" enable-background="new 431.8 460.1 96.4 100" xml:space="preserve"
	>
<title>usage</title>
<g id="Usage">
	<path id="donut" d="M478.2,460.1v20.2c16.5,0,29.8,13.4,29.8,29.8c0,16.5-13.4,29.8-29.8,29.8c-12.2,0-23.2-7.4-27.7-18.8
		l-18.7,7.5c10.3,25.6,39.3,38.1,65,27.8s38.1-39.3,27.8-65C517.1,472.5,498.7,460.1,478.2,460.1z"/>
	<g id="percent">
		<path d="M477,501.6c0-3.9-3.2-7.1-7.1-7.1s-7.1,3.2-7.1,7.1c0,3.9,3.2,7.1,7.1,7.1c3.8,0.1,7-2.9,7.1-6.7
			C477,501.9,477,501.8,477,501.6z M467.1,501.6c0-1.5,1.3-2.8,2.8-2.8s2.8,1.3,2.8,2.8c0,0,0,0,0,0c0,1.5-1.3,2.8-2.8,2.8
			S467.1,503.2,467.1,501.6L467.1,501.6z"/>
		<polygon points="484.6,495 467.5,523.4 471.6,523.4 488.7,495 		"/>
		<path d="M486.5,509.6c-3.9,0-7.1,3.2-7.1,7.1c0,3.9,3.2,7.1,7.1,7.1s7.1-3.2,7.1-7.1l0,0c0.1-3.8-2.9-7-6.8-7.1
			C486.7,509.6,486.6,509.6,486.5,509.6z M486.5,519.7c-1.6,0-3-1.2-3-2.8c0-1.6,1.2-3,2.8-3s3,1.2,3,2.8c0,0,0,0.1,0,0.1
			c0.1,1.5-1,2.8-2.5,2.9C486.7,519.7,486.6,519.7,486.5,519.7z"/>
	</g>
</g>
</svg>
