<?xml version="1.0" encoding="utf-8"?>
<!-- Generator: Adobe Illustrator 18.1.1, SVG Export Plug-In . SVG Version: 6.00 Build 0)  -->
<svg version="1.1" id="Layer_1" xmlns="http://www.w3.org/2000/svg" xmlns:xlink="http://www.w3.org/1999/xlink" x="0px" y="0px"
	 width="138.9px" height="100px" viewBox="0 0 138.9 100" enable-background="new 0 0 138.9 100" xml:space="preserve">
<path d="M122.2,0H16.7C7.5,0,0,7.5,0,16.7v66.7C0,92.5,7.5,100,16.7,100h105.6c9.2,0,16.7-7.5,16.7-16.7V16.7
	C138.9,7.5,131.4,0,122.2,0z M127.8,83.3c0,3.1-2.5,5.6-5.6,5.6H16.7c-3.1,0-5.6-2.5-5.6-5.6V16.7c0-3.1,2.5-5.6,5.6-5.6h105.6
	c3.1,0,5.6,2.5,5.6,5.6V83.3z"/>
<path d="M94.4,50L55.6,72.2V27.8L94.4,50z"/>
</svg>
