<?xml version="1.0" encoding="utf-8"?>
<!-- Generator: Adobe Illustrator 18.1.1, SVG Export Plug-In . SVG Version: 6.00 Build 0)  -->
<svg version="1.1" id="Layer_1" xmlns="http://www.w3.org/2000/svg" xmlns:xlink="http://www.w3.org/1999/xlink" x="0px" y="0px"
	 width="100px" height="79.4px" viewBox="0 0 100 79.4" enable-background="new 0 0 100 79.4" xml:space="preserve">
<g id="_x38_be32281-006c-4dbf-a8b3-259327f322b2.psd">
	<g id="Shape_8">
		<g>
			<path fill-rule="evenodd" clip-rule="evenodd" d="M99.1,20.6l-15,9.8L74,15.2l14.8-9.8C79.6-1.3,66.9-2,57,4.6
				c-8.8,6-13.1,15.9-12,25.7L5.6,56.5c-5.8,4-7.3,11.9-3.7,17.4c4.1,5.7,12,7.2,17.8,3.4l39.6-26.1c8.6,4.9,19.6,4.7,28.4-1.3
				C97.9,43.3,101.9,31.4,99.1,20.6z M17.7,69.9c-2.4,1.7-5.6,1.1-7.1-1.3c-1.5-2.3-0.9-5.5,1.5-7c2.4-1.7,5.4-1.1,6.9,1.3
				C20.7,65.2,20,68.4,17.7,69.9z"/>
		</g>
	</g>
</g>
</svg>
