<?xml version="1.0" encoding="utf-8"?><svg width="168" height="168" viewBox="0 0 168 168" xmlns="http://www.w3.org/2000/svg" xmlns:xlink="http://www.w3.org/1999/xlink"><svg viewBox="0 0 24 24" width="24" height="24" id="add" x="24" xmlns="http://www.w3.org/2000/svg"><path d="M20 10h-6V4a2 2 0 0 0-4 0v6H4a2 2 0 0 0 0 4h6v6a2 2 0 0 0 4 0v-6h6a2 2 0 0 0 0-4z"/></svg><svg viewBox="0 0 24 24" width="24" height="24" id="airplay" x="96" y="96" xmlns="http://www.w3.org/2000/svg"><path d="M20 3.51H4a2 2 0 0 0-2 2v9.33a2 2 0 0 0 2 2h2.05l3.74-4.08a3 3 0 0 1 4.42 0L18 16.84h2a2 2 0 0 0 2-2V5.51a2 2 0 0 0-2-2z"/><path d="M17.31 18.82l-2.08-2.26-2.5-2.73a1 1 0 0 0-1.46 0l-2.5 2.73-2.08 2.26a1 1 0 0 0 .74 1.67h9.14a1 1 0 0 0 .74-1.67z"/></svg><svg viewBox="0 0 24 24" width="24" height="24" id="analytics" y="24" xmlns="http://www.w3.org/2000/svg"><rect x="9.47" y="2" width="5" height="20" rx="1" ry="1"/><rect x="17" y="7" width="5" height="15" rx="1" ry="1"/><rect x="2" y="12" width="5" height="10" rx="1" ry="1"/></svg><svg viewBox="0 0 24 24" width="24" height="24" id="arrow" x="24" y="24" xmlns="http://www.w3.org/2000/svg"><path d="M21.41 10.59l-8-8a2 2 0 0 0-2.82 0l-8 8a2 2 0 0 0 2.82 2.82L10 8.83V20a2 2 0 0 0 4 0V8.83l4.59 4.58a2 2 0 0 0 2.82-2.82z"/></svg><svg viewBox="0 0 24 24" width="24" height="24" id="calendar" x="48" xmlns="http://www.w3.org/2000/svg"><path d="M20.5 6h-.71V4a2 2 0 0 0-4 0v2H8.27V4a2 2 0 0 0-4 0v2H3.5A1.5 1.5 0 0 0 2 7.5v13A1.5 1.5 0 0 0 3.5 22h17a1.5 1.5 0 0 0 1.5-1.5v-13A1.5 1.5 0 0 0 20.5 6zm-9.14 10.48a2.73 2.73 0 0 1-.66.93 3.17 3.17 0 0 1-1 .63 3.64 3.64 0 0 1-1.31.23A3.26 3.26 0 0 1 7.05 18a3.4 3.4 0 0 1-1-.66 3.07 3.07 0 0 1-.56-.82 1.79 1.79 0 0 1-.2-.72.83.83 0 0 1 .26-.63.85.85 0 0 1 .63-.25.69.69 0 0 1 .39.12.6.6 0 0 1 .25.3 3.52 3.52 0 0 0 .63 1.16 1.1 1.1 0 0 0 .88.36A1.4 1.4 0 0 0 9 16.7a1.35 1.35 0 0 0 .5-.48 1.37 1.37 0 0 0 .21-.75 1.4 1.4 0 0 0-.34-1 1.25 1.25 0 0 0-1-.35H7.69a.83.83 0 0 1-.58-.2.71.71 0 0 1-.11-.48.69.69 0 0 1 .26-.55 1.11 1.11 0 0 1 .71-.2h.24A1.33 1.33 0 0 0 9 12.4a1 1 0 0 0 .34-.81.94.94 0 0 0-.28-.69 1 1 0 0 0-.74-.29 1.38 1.38 0 0 0-.54.09.8.8 0 0 0-.32.23 2.34 2.34 0 0 0-.24.4l-.22.48a.53.53 0 0 1-.27.26 1 1 0 0 1-.41.08.73.73 0 0 1-.51-.23.78.78 0 0 1-.24-.59 1.53 1.53 0 0 1 .2-.71 2.48 2.48 0 0 1 .58-.62 2.81 2.81 0 0 1 .92-.51 3.67 3.67 0 0 1 1.22-.2 3.4 3.4 0 0 1 1.08.17 2.35 2.35 0 0 1 .85.47 2 2 0 0 1 .56.72 2.17 2.17 0 0 1 .19.88 2 2 0 0 1-.28 1.07 3.43 3.43 0 0 1-.62.74 3 3 0 0 1 .65.49 2.39 2.39 0 0 1 .49.74 2.34 2.34 0 0 1 .17.88 2.71 2.71 0 0 1-.22 1.03zm5.75.49c0 1.08-.51 1.3-.93 1.3a.85.85 0 0 1-.67-.28 1.17 1.17 0 0 1-.25-.79v-5.08a4.25 4.25 0 0 1-1.88 1 .73.73 0 0 1-.52-.23.78.78 0 0 1-.23-.54.63.63 0 0 1 .24-.54 4 4 0 0 1 .68-.38 5.49 5.49 0 0 0 1.11-.68 4.69 4.69 0 0 0 .73-.81c.23-.31.37-.5.44-.57a.6.6 0 0 1 .47-.15.72.72 0 0 1 .59.29 1.18 1.18 0 0 1 .22.74z"/></svg><svg viewBox="0 0 24 24" width="24" height="24" id="checkmark" x="48" y="24" xmlns="http://www.w3.org/2000/svg"><path d="M9 20h-.09a2 2 0 0 1-1.48-.71l-5-5.9a2 2 0 1 1 3.06-2.57L9 15l9.53-10.35a2 2 0 0 1 2.94 2.7l-11 12A2 2 0 0 1 9 20z"/></svg><svg viewBox="0 0 24 24" width="24" height="24" id="chevron" y="48" xmlns="http://www.w3.org/2000/svg"><path d="M20 18a2 2 0 0 1-1.41-.59L12 10.83l-6.59 6.58a2 2 0 0 1-2.82-2.82l8-8a2 2 0 0 1 2.82 0l8 8A2 2 0 0 1 20 18z"/></svg><svg viewBox="0 0 24 24" width="24" height="24" id="chromcast" x="24" y="48" xmlns="http://www.w3.org/2000/svg"><path d="M2 17.45v2.73h2.73A2.73 2.73 0 0 0 2 17.45zm0-3.63v1.82a4.55 4.55 0 0 1 4.55 4.54h1.81A6.35 6.35 0 0 0 2 13.82zm16.36-6.37H5.64v1.49a11.86 11.86 0 0 1 7.61 7.61h5.11v-9.1zM2 10.18V12a8.18 8.18 0 0 1 8.18 8.18H12a10 10 0 0 0-10-10zm18.18-6.36H3.82A1.83 1.83 0 0 0 2 5.64v2.72h1.82V5.64h16.36v12.72h-6.36v1.82h6.36A1.83 1.83 0 0 0 22 18.36V5.64a1.83 1.83 0 0 0-1.82-1.82z"/></svg><svg viewBox="0 0 24 24" width="24" height="24" id="close" x="48" y="48" xmlns="http://www.w3.org/2000/svg"><path d="M14.83 12l6.58-6.59a2 2 0 0 0-2.82-2.82L12 9.17 5.41 2.59a2 2 0 0 0-2.82 2.82L9.17 12l-6.58 6.59a2 2 0 1 0 2.82 2.82L12 14.83l6.59 6.58a2 2 0 0 0 2.82-2.82z"/></svg><svg viewBox="0 0 24 24" width="24" height="24" id="collapse-expand" x="72" xmlns="http://www.w3.org/2000/svg"><path d="M20.5 22a1.5 1.5 0 0 1-1.5-1.5v-17a1.5 1.5 0 0 1 3 0v17a1.5 1.5 0 0 1-1.5 1.5zM14.56 10.94l-5-5a1.5 1.5 0 1 0-2.12 2.12l2.44 2.44H3.5a1.5 1.5 0 0 0 0 3h6.38l-2.44 2.44a1.49 1.49 0 0 0 0 2.12 1.5 1.5 0 0 0 2.12 0l5-5a1.49 1.49 0 0 0 0-2.12z"/></svg><svg viewBox="0 0 24 24" width="24" height="24" id="credit_card" x="72" y="24" xmlns="http://www.w3.org/2000/svg"><path d="M2 17a2 2 0 0 0 2 2h16a2 2 0 0 0 2-2V9.5H2zm15-1.67h3.33V17H17zM20 5H4a2 2 0 0 0-2 2v.83h20V7a2 2 0 0 0-2-2z"/></svg><svg viewBox="0 0 24 24" width="24" height="24" id="customize" x="72" y="48" xmlns="http://www.w3.org/2000/svg"><path d="M20.5 22h-17a1.5 1.5 0 0 1 0-3h17a1.5 1.5 0 0 1 0 3zM17 11.25A4.88 4.88 0 0 1 12 16a4.91 4.91 0 0 1-5-4.75C7 8.6 10.33 6 12 2c1.78 3.8 5 6.6 5 9.25z"/></svg><svg viewBox="0 0 24 24" width="24" height="24" id="device_-_desktop" y="72" xmlns="http://www.w3.org/2000/svg"><path d="M19 5v10H5V5h14m1-3H4a2 2 0 0 0-2 2v12a2 2 0 0 0 2 2h16a2 2 0 0 0 2-2V4a2 2 0 0 0-2-2zM15.33 22H8.67a1.5 1.5 0 0 1 0-3h6.66a1.5 1.5 0 0 1 0 3z"/></svg><svg viewBox="0 0 24 24" width="24" height="24" id="device_-_landscape" x="24" y="72" xmlns="http://www.w3.org/2000/svg"><defs><style>.ancls-1{fill:none}</style></defs><path class="ancls-1" d="M6.99 8h11.67v8H6.99z"/><path d="M22 16V8a2 2 0 0 0-2-2H4a2 2 0 0 0-2 2v8a2 2 0 0 0 2 2h16a2 2 0 0 0 2-2zM3.4 12a1.25 1.25 0 1 1 1.25 1.25A1.25 1.25 0 0 1 3.4 12zM7 16V8h11.66v8z"/></svg><svg viewBox="0 0 24 24" width="24" height="24" id="device_-_portrait" x="48" y="72" xmlns="http://www.w3.org/2000/svg"><defs><style>.aocls-1{fill:none}</style></defs><path class="aocls-1" d="M8 5.34h8v11.67H8z"/><path d="M16 2H8a2 2 0 0 0-2 2v16a2 2 0 0 0 2 2h8a2 2 0 0 0 2-2V4a2 2 0 0 0-2-2zm-4 18.6a1.25 1.25 0 1 1 1.25-1.25A1.25 1.25 0 0 1 12 20.6zm4-3.6H8V5.34h8z"/></svg><svg viewBox="0 0 24 24" width="24" height="24" id="document" x="72" y="72" xmlns="http://www.w3.org/2000/svg"><path d="M18 2H6a2 2 0 0 0-2 2v16a2 2 0 0 0 2 2h12a2 2 0 0 0 2-2V4a2 2 0 0 0-2-2zm-3.82 15.37h-7a1 1 0 0 1 0-2h7a1 1 0 0 1 0 2zM16.8 13H7.2a1 1 0 1 1 0-2h9.6a1 1 0 0 1 0 2zm0-4.37H7.2a1 1 0 1 1 0-2h9.6a1 1 0 1 1 0 2z"/></svg><svg viewBox="0 0 24 24" width="24" height="24" id="download" x="96" xmlns="http://www.w3.org/2000/svg"><path d="M20.5 19h-17a1.5 1.5 0 0 0 0 3h17a1.5 1.5 0 0 0 0-3zM10.94 14.56a1.5 1.5 0 0 0 2.12 0l5-5a1.5 1.5 0 1 0-2.12-2.12L13.5 9.88V3.5a1.5 1.5 0 0 0-3 0v6.38L8.06 7.44a1.5 1.5 0 1 0-2.12 2.12z"/></svg><svg viewBox="0 0 24 24" width="24" height="24" id="drag" x="96" y="24" xmlns="http://www.w3.org/2000/svg"><path d="M20.5 22h-17a1.5 1.5 0 0 1 0-3h17a1.5 1.5 0 0 1 0 3zM18.5 13.61h-13a1.5 1.5 0 0 1 0-3h13a1.5 1.5 0 0 1 0 3zM20.5 5h-17a1.5 1.5 0 0 1 0-3h17a1.5 1.5 0 0 1 0 3z"/></svg><svg viewBox="0 0 24 24" width="24" height="24" id="edit" x="96" y="48" xmlns="http://www.w3.org/2000/svg"><path d="M21.64 7L10.23 18.39a1.53 1.53 0 0 1-2.14-.17l-2.31-2.31a1.53 1.53 0 0 1-.17-2.14L17 2.36a1.54 1.54 0 0 1 2.14.17l2.31 2.31A1.54 1.54 0 0 1 21.64 7zM2.5 22h3.8a.5.5 0 0 0 .35-.85l-3.8-3.8a.5.5 0 0 0-.85.35v3.8a.5.5 0 0 0 .5.5z"/></svg><svg viewBox="0 0 24 24" width="24" height="24" id="embed" x="96" y="72" xmlns="http://www.w3.org/2000/svg"><path d="M5.5 16.5a1.51 1.51 0 0 1-1.06-.44l-3-3a1.49 1.49 0 0 1 0-2.12l3-3a1.5 1.5 0 1 1 2.12 2.12L4.62 12l1.94 1.94a1.49 1.49 0 0 1 0 2.12 1.51 1.51 0 0 1-1.06.44zM18.5 16.5a1.51 1.51 0 0 1-1.06-.44 1.49 1.49 0 0 1 0-2.12L19.38 12l-1.94-1.94a1.5 1.5 0 1 1 2.12-2.12l3 3a1.49 1.49 0 0 1 0 2.12l-3 3a1.51 1.51 0 0 1-1.06.44zM8.68 21a1.52 1.52 0 0 1-.59-.12 1.49 1.49 0 0 1-.79-2l6.35-15a1.5 1.5 0 0 1 2.77 1.16l-6.36 15a1.49 1.49 0 0 1-1.38.96z"/></svg><svg viewBox="0 0 24 24" width="24" height="24" id="external_link" y="96" xmlns="http://www.w3.org/2000/svg"><path d="M14.12 22H3.5A1.5 1.5 0 0 1 2 20.5V9.88a1.5 1.5 0 0 1 3 0V19h9.12a1.5 1.5 0 0 1 0 3zM20.5 2H9.88a1.5 1.5 0 0 0 0 3h7l-5.7 5.7a1.51 1.51 0 0 0 0 2.12 1.53 1.53 0 0 0 1.06.44 1.49 1.49 0 0 0 1.06-.44l5.7-5.7v7a1.5 1.5 0 0 0 3 0V3.5A1.5 1.5 0 0 0 20.5 2z"/></svg><svg viewBox="0 0 24 24" width="24" height="24" id="full-screen_off" x="24" y="96" xmlns="http://www.w3.org/2000/svg"><path d="M20.5 14.57a1.5 1.5 0 0 1-1.5-1.5V5h-8.07a1.5 1.5 0 0 1 0-3h9.57A1.5 1.5 0 0 1 22 3.5v9.57a1.5 1.5 0 0 1-1.5 1.5zM13.07 22H3.5A1.5 1.5 0 0 1 2 20.5v-9.57a1.5 1.5 0 0 1 3 0V19h8.07a1.5 1.5 0 0 1 0 3z"/></svg><svg viewBox="0 0 24 24" width="24" height="24" id="full-screen_on" x="48" y="96" xmlns="http://www.w3.org/2000/svg"><path d="M9.5 22A1.5 1.5 0 0 1 8 20.5V16H3.5a1.5 1.5 0 0 1 0-3h6a1.5 1.5 0 0 1 1.5 1.5v6A1.5 1.5 0 0 1 9.5 22zM20.5 11h-6A1.5 1.5 0 0 1 13 9.5v-6a1.5 1.5 0 0 1 3 0V8h4.5a1.5 1.5 0 0 1 0 3z"/></svg><svg viewBox="0 0 24 24" width="24" height="24" id="grid" x="72" y="96" xmlns="http://www.w3.org/2000/svg"><rect x="2" y="2" width="8.33" height="8.33" rx="1" ry="1"/><rect x="13.67" y="2" width="8.33" height="8.33" rx="1" ry="1"/><rect x="2" y="13.67" width="8.33" height="8.33" rx="1" ry="1"/><rect x="13.67" y="13.67" width="8.33" height="8.33" rx="1" ry="1"/></svg><svg viewBox="0 0 24 24" width="24" height="24" id="help" xmlns="http://www.w3.org/2000/svg"><path d="M12 2a10 10 0 1 0 10 10A10 10 0 0 0 12 2zm1 16.05a1.37 1.37 0 0 1-.94.36 1.48 1.48 0 0 1-1-.35 1.4 1.4 0 0 1 0-2 1.38 1.38 0 0 1 1-.4 1.35 1.35 0 0 1 1.36 1.37 1.26 1.26 0 0 1-.42 1.02zm2.76-8a3.49 3.49 0 0 1-.66.89c-.24.24-.68.64-1.29 1.18q-.24.22-.39.39a1.54 1.54 0 0 0-.19.28.77.77 0 0 0-.1.25c0 .09-.07.26-.12.5a1.08 1.08 0 0 1-1.13 1 1.16 1.16 0 0 1-.88-.34 1.27 1.27 0 0 1-.34-.94 2.86 2.86 0 0 1 .22-1.18 3.12 3.12 0 0 1 .56-.89c.22-.23.51-.51.89-.84s.54-.49.68-.63a1.8 1.8 0 0 0 .32-.42.9.9 0 0 0 .12-.46 1.09 1.09 0 0 0-.37-.84 1.41 1.41 0 0 0-1-.35 1.36 1.36 0 0 0-1 .35 3 3 0 0 0-.61 1.14 1.22 1.22 0 0 1-1.2 1 1.16 1.16 0 0 1-.88-.37A1.12 1.12 0 0 1 8 9a3 3 0 0 1 .5-1.58A3.72 3.72 0 0 1 9.92 6.1a4.46 4.46 0 0 1 2.17-.51 4.69 4.69 0 0 1 2 .42 3.51 3.51 0 0 1 1.39 1.18A3 3 0 0 1 16 8.83a2.57 2.57 0 0 1-.29 1.23z"/></svg><svg viewBox="0 0 24 24" width="24" height="24" id="home" x="120" xmlns="http://www.w3.org/2000/svg"><path d="M20.5 11.48a1.47 1.47 0 0 1-.91-.31L12 5.39l-7.59 5.78a1.5 1.5 0 0 1-1.82-2.39l8.5-6.47a1.5 1.5 0 0 1 1.82 0l8.5 6.47a1.51 1.51 0 0 1-.91 2.7z"/><path d="M17.36 22H6.64A1.49 1.49 0 0 1 5 20.72v-5.61a1.22 1.22 0 0 1 .63-1l5.8-4.44a1.11 1.11 0 0 1 1.14 0l5.8 4.44a1.22 1.22 0 0 1 .63 1v5.61A1.49 1.49 0 0 1 17.36 22z"/></svg><svg viewBox="0 0 24 24" width="24" height="24" id="key" x="120" y="24" xmlns="http://www.w3.org/2000/svg"><path d="M11.57 10a5.07 5.07 0 1 0 0 4H16v3h4v-3h2v-4zM7 13.63A1.63 1.63 0 1 1 8.63 12 1.63 1.63 0 0 1 7 13.63z"/></svg><svg viewBox="0 0 24 24" width="24" height="24" id="labs" x="120" y="48" xmlns="http://www.w3.org/2000/svg"><path d="M20.68 18.72l-4.79-8a.36.36 0 0 1 0-.11V4H16a1 1 0 0 0 0-2H8a1 1 0 0 0 0 2h.13v6.64a.36.36 0 0 1 0 .11l-4.79 8a2.2 2.2 0 0 0 0 2.23A2 2 0 0 0 5.05 22H19a2 2 0 0 0 1.71-1 2.2 2.2 0 0 0-.03-2.28zM9.82 11.78a2.24 2.24 0 0 0 .31-1.14V4h3.74v6.64a2.24 2.24 0 0 0 .31 1.14l3.05 5.08a10.56 10.56 0 0 0-5.12-1.12 9.76 9.76 0 0 0-5.49 1.37z"/></svg><svg viewBox="0 0 24 24" width="24" height="24" id="link" x="120" y="72" xmlns="http://www.w3.org/2000/svg"><path d="M14 16.35l.78-.79a1 1 0 0 0 .32-.76 1.07 1.07 0 0 0-.32-.77l-.59-.58a1.07 1.07 0 0 0-1.53 0l-.78.78a.61.61 0 0 1-.82 0l-5.9-5.89a.61.61 0 0 1 0-.82l2.36-2.36a.61.61 0 0 1 .82 0l1 1a1.08 1.08 0 0 0 1.53 0l.59-.58a1.09 1.09 0 0 0 0-1.54l-1-1A3.6 3.6 0 0 0 5.4 3L3 5.4a3.6 3.6 0 0 0 0 5.06l5.89 5.89a3.57 3.57 0 0 0 4.34.54 3.86 3.86 0 0 0 .77-.54z"/><path d="M21 13.54l-5.93-5.89a3.62 3.62 0 0 0-4.34-.54 3.56 3.56 0 0 0-.72.54l-.78.78a1.08 1.08 0 0 0 0 1.54l.59.58a1.07 1.07 0 0 0 1.53 0l.78-.78a.61.61 0 0 1 .82 0l5.88 5.89a.58.58 0 0 1 0 .82l-2.35 2.36a.61.61 0 0 1-.82 0l-1-1a1.07 1.07 0 0 0-1.53 0l-.59.58a1.07 1.07 0 0 0-.32.77 1 1 0 0 0 .32.76l1 1a3.6 3.6 0 0 0 5.06 0L21 18.6a3.57 3.57 0 0 0 0-5.06z"/></svg><svg viewBox="0 0 24 24" width="24" height="24" id="list-big" x="120" y="96" xmlns="http://www.w3.org/2000/svg"><rect x="2" y="2.02" width="20" height="3.33" rx="1" ry="1"/><rect x="2" y="10.32" width="20" height="3.33" rx="1" ry="1"/><rect x="2" y="18.67" width="20" height="3.33" rx="1" ry="1"/></svg><svg viewBox="0 0 24 24" width="24" height="24" id="list-small" y="120" xmlns="http://www.w3.org/2000/svg"><rect x="2" y="2" width="20" height="1.66" rx=".5" ry=".5"/><rect x="2" y="7.99" width="20" height="1.66" rx=".5" ry=".5"/><rect x="2" y="20.34" width="20" height="1.66" rx=".5" ry=".5"/><rect x="2" y="14.26" width="20" height="1.66" rx=".5" ry=".5"/></svg><svg viewBox="0 0 24 24" width="24" height="24" id="lock" x="24" y="120" xmlns="http://www.w3.org/2000/svg"><path d="M20 10.49A8.28 8.28 0 0 0 12 2a8.28 8.28 0 0 0-8 8.49V20a2 2 0 0 0 2 2h12a2 2 0 0 0 2-2v-9.51zM12 5a5.28 5.28 0 0 1 5 5.49H7A5.28 5.28 0 0 1 12 5z"/></svg><svg viewBox="0 0 24 24" width="24" height="24" id="mail" x="48" y="120" xmlns="http://www.w3.org/2000/svg"><path d="M20 4H4a2 2 0 0 0-2 2v12a2 2 0 0 0 2 2h16a2 2 0 0 0 2-2V6a2 2 0 0 0-2-2zm-.71 5.05l-6.67 5.34a1 1 0 0 1-1.24 0L4.71 9.05A1 1 0 1 1 6 7.49l6 4.83 6-4.83a1 1 0 1 1 1.25 1.56z"/></svg><svg viewBox="0 0 24 24" width="24" height="24" id="monetize" x="72" y="120" xmlns="http://www.w3.org/2000/svg"><path d="M17.25 14.71a5.1 5.1 0 0 0-4.91-5 1.58 1.58 0 0 0-.38 0c-.55 0-1.21-.17-1.21-1 0-.49.65-1 1.59-1a1.85 1.85 0 0 1 1.37.52 1.75 1.75 0 1 0 2.58-2.36 5.12 5.12 0 0 0-2.79-1.54V3.5a1.5 1.5 0 0 0-3 0v1a4.57 4.57 0 0 0-3.25 4.24 4.37 4.37 0 0 0 4.23 4.41 1.58 1.58 0 0 0 .38 0c1.09 0 1.89.63 1.89 1.51s-1 1.5-2.14 1.5a2.45 2.45 0 0 1-1.81-.72 1.75 1.75 0 0 0-2.6 2.34 5.7 5.7 0 0 0 3.3 1.77v.9a1.5 1.5 0 0 0 3 0v-1.04a5.08 5.08 0 0 0 3.75-4.7z"/></svg><svg viewBox="0 0 24 24" width="24" height="24" id="phone" x="96" y="120" xmlns="http://www.w3.org/2000/svg"><path d="M21.8 18.79A5.24 5.24 0 0 1 17.14 22c-.26 0-4.22.22-9.94-5.22A16.06 16.06 0 0 1 2 6.8c0-.87.2-3.06 3.2-4.68a1.4 1.4 0 0 1 1.55.28c.06.09 2.35 3.85 2.41 4a1.11 1.11 0 0 1 .1.41 1.22 1.22 0 0 1-.4.7 6.62 6.62 0 0 1-.86.77 7.14 7.14 0 0 0-.88.77 1.09 1.09 0 0 0-.4.66c0 .44.38 2 3.14 4.46A20.93 20.93 0 0 0 14 17.32a1.24 1.24 0 0 0 .32.08c.18 0 .38-.14.66-.4s1.16-1.49 1.44-1.77a1.22 1.22 0 0 1 .7-.4 1 1 0 0 1 .4.1c.14.06 4.28 2.49 4.36 2.57s0 .9-.12 1.29"/></svg><svg viewBox="0 0 24 24" width="24" height="24" id="play" x="120" y="120" xmlns="http://www.w3.org/2000/svg"><path d="M20.11 10.34l-12-8A2 2 0 0 0 5 4v16a2 2 0 0 0 3.11 1.66l12-8a2 2 0 0 0 0-3.32z"/></svg><svg viewBox="0 0 24 24" width="24" height="24" id="preview" x="144" xmlns="http://www.w3.org/2000/svg"><path d="M12 5C5.56 5 2 12 2 12s3.56 7 10 7 10-7 10-7-3.56-7-10-7zm3.33 7.45A3.33 3.33 0 1 1 15 11a3.33 3.33 0 0 1 .33 1.45z"/></svg><svg viewBox="0 0 24 24" width="24" height="24" id="recommendations" x="144" y="24" xmlns="http://www.w3.org/2000/svg"><rect x="2" y="5.63" width="5.5" height="5.5" rx="1" ry="1"/><rect x="9.25" y="5.63" width="5.5" height="5.5" rx="1" ry="1"/><rect x="2" y="12.88" width="5.5" height="5.5" rx="1" ry="1"/><rect x="9.37" y="12.88" width="5.5" height="5.5" rx="1" ry="1"/><rect x="16.5" y="5.63" width="5.5" height="5.5" rx="1" ry="1"/><rect x="16.5" y="12.88" width="5.5" height="5.5" rx="1" ry="1"/></svg><svg viewBox="0 0 24 24" width="24" height="24" id="search" x="144" y="48" xmlns="http://www.w3.org/2000/svg"><path d="M21.41 18.59L16 13.19A7.52 7.52 0 1 0 13.19 16l5.4 5.39a2 2 0 0 0 2.82-2.82zM9.5 13A3.5 3.5 0 1 1 13 9.5 3.5 3.5 0 0 1 9.5 13z"/></svg><svg viewBox="0 0 24 24" width="24" height="24" id="settings" x="144" y="72" xmlns="http://www.w3.org/2000/svg"><path d="M20.19 14a7.73 7.73 0 0 0 0-3.9l1.52-.83a.64.64 0 0 0 .29-.83l-1.9-2.88a.57.57 0 0 0-.7-.23l-1.53.83a8.35 8.35 0 0 0-3.56-2v-1.6A.53.53 0 0 0 13.8 2h-3.53a.53.53 0 0 0-.58.49v1.68a8.35 8.35 0 0 0-3.56 2L4.6 5.33a.57.57 0 0 0-.7.23L2.17 8.44a.53.53 0 0 0 .1.77l1.52.83a7.73 7.73 0 0 0 0 3.9l-1.52.83a.63.63 0 0 0-.24.77l1.87 2.9a.57.57 0 0 0 .7.23l1.53-.83a8.35 8.35 0 0 0 3.56 2v1.61a.53.53 0 0 0 .51.56h3.53a.53.53 0 0 0 .58-.49v-1.69a8.35 8.35 0 0 0 3.56-2l1.53.83a.63.63 0 0 0 .81-.23L22 15.55a.71.71 0 0 0-.24-.77zm-4.72-2a3.33 3.33 0 0 1-3.34 3.33H12A3.41 3.41 0 0 1 8.53 12 3.39 3.39 0 0 1 12 8.66 3.39 3.39 0 0 1 15.47 12z"/></svg><svg viewBox="0 0 24 24" width="24" height="24" id="share" x="144" y="96" xmlns="http://www.w3.org/2000/svg"><path d="M21.3 9.48l-7-6a2 2 0 1 0-2.6 3L14.54 9c-6.6.6-10.79 4.12-12.47 10.49a2 2 0 0 0 1.42 2.44A1.79 1.79 0 0 0 4 22a2 2 0 0 0 1.93-1.49c1.24-4.69 4-7.09 8.75-7.58l-3 2.55a2 2 0 0 0 2.6 3l7-6a2 2 0 0 0 0-3z"/></svg><svg viewBox="0 0 24 24" width="24" height="24" id="sort" x="144" y="120" xmlns="http://www.w3.org/2000/svg"><path d="M12 22a1.51 1.51 0 0 1-1-.39l-5.5-5a1.5 1.5 0 1 1 2-2.22l4.5 4.08 4.49-4.08a1.5 1.5 0 0 1 2 2.22l-5.5 5A1.51 1.51 0 0 1 12 22zM17.5 10a1.51 1.51 0 0 1-1-.39L12 5.53 7.51 9.61a1.5 1.5 0 0 1-2-2.22l5.5-5a1.5 1.5 0 0 1 2 0l5.5 5a1.5 1.5 0 0 1 .1 2.12 1.52 1.52 0 0 1-1.11.49z"/></svg><svg viewBox="0 0 24 24" width="24" height="24" id="thumbnail" y="144" xmlns="http://www.w3.org/2000/svg"><path d="M20 4H4a2 2 0 0 0-2 2v12a2 2 0 0 0 2 2h16a2 2 0 0 0 2-2V6a2 2 0 0 0-2-2zM7.48 11.63a2.08 2.08 0 1 1 2.09-2.08 2.08 2.08 0 0 1-2.09 2.08zm11.13 4.11h-8a.49.49 0 0 1-.41-.78l4-5.71a.5.5 0 0 1 .82 0L19 15a.5.5 0 0 1-.39.74z"/></svg><svg viewBox="0 0 24 24" width="24" height="24" id="tool" x="24" y="144" xmlns="http://www.w3.org/2000/svg"><path d="M21.49 5.46l-3 3-2.97-2.92 3-3A5.7 5.7 0 0 0 16.17 2a5.84 5.84 0 0 0-5.84 5.83 5.77 5.77 0 0 0 .35 2l-7.95 7.9a2.5 2.5 0 0 0 3.54 3.54l7.94-7.95a5.77 5.77 0 0 0 2 .35A5.84 5.84 0 0 0 22 7.83a5.7 5.7 0 0 0-.51-2.37zm-17 15.31a1.25 1.25 0 1 1 1.25-1.25 1.25 1.25 0 0 1-1.26 1.25z"/></svg><svg viewBox="0 0 24 24" width="24" height="24" id="trash" x="48" y="144" xmlns="http://www.w3.org/2000/svg"><path d="M21 4h-4a1 1 0 0 0 0-2H7a1 1 0 0 0 0 2H3a1 1 0 0 0 0 2h18a1 1 0 0 0 0-2z"/><rect x="6" y="8.91" width="12" height="13.09" rx="1" ry="1"/></svg><svg viewBox="0 0 24 24" width="24" height="24" id="trim" x="72" y="144" xmlns="http://www.w3.org/2000/svg"><path d="M18 14a4 4 0 0 0-2.25.7l-2-2.48c.27-.19.57-.42.91-.7.53-.43 5.18-4.29 5.31-7.07a2.4 2.4 0 0 0-.86-1.73L18.35 2 12 10 5.65 2l-.79.7A2.4 2.4 0 0 0 4 4.43c.13 2.78 4.78 6.64 5.31 7.07.34.28.64.51.91.7l-2 2.48A4 4 0 1 0 10 18a4 4 0 0 0-.42-1.77l2.42-3 2.42 3A4 4 0 1 0 22 18a4 4 0 0 0-4-4zM6 20a2 2 0 1 1 2-2 2 2 0 0 1-2 2zm12 0a2 2 0 1 1 2-2 2 2 0 0 1-2 2z"/></svg><svg viewBox="0 0 24 24" width="24" height="24" id="upload" x="96" y="144" xmlns="http://www.w3.org/2000/svg"><path d="M20.5 5h-17a1.5 1.5 0 0 1 0-3h17a1.5 1.5 0 0 1 0 3zM18.06 14.44l-5-5a1.49 1.49 0 0 0-2.12 0l-5 5a1.5 1.5 0 1 0 2.12 2.12l2.44-2.44v6.38a1.5 1.5 0 0 0 3 0v-6.38l2.44 2.44a1.5 1.5 0 0 0 2.12 0 1.49 1.49 0 0 0 0-2.12z"/></svg><svg viewBox="0 0 24 24" width="24" height="24" id="warning" x="120" y="144" xmlns="http://www.w3.org/2000/svg"><path d="M12 2a10 10 0 1 0 10 10A10 10 0 0 0 12 2zm1 15.79a1.43 1.43 0 0 1-1 .37 1.46 1.46 0 0 1-1-.37 1.32 1.32 0 0 1-.44-1.05 1.39 1.39 0 0 1 .41-1 1.45 1.45 0 0 1 2 0 1.44 1.44 0 0 1 0 2zM13.37 9L13 12.81a3.31 3.31 0 0 1-.22 1.19.85.85 0 0 1-.82.51.83.83 0 0 1-.81-.5 3.7 3.7 0 0 1-.26-1.16l-.25-3.74c-.05-.73-.07-1.27-.07-1.59A1.66 1.66 0 0 1 11 6.28a1.37 1.37 0 0 1 1.07-.44 1.15 1.15 0 0 1 1.13.6 3.34 3.34 0 0 1 .25 1.45A9.73 9.73 0 0 1 13.37 9z"/></svg></svg>