<?xml version="1.0" encoding="utf-8"?><svg width="885" height="865" viewBox="0 0 885 865" xmlns="http://www.w3.org/2000/svg" xmlns:xlink="http://www.w3.org/1999/xlink"><svg width="100" height="100" viewBox="816 663 100 100" id="add" x="96.4" y="400" xmlns="http://www.w3.org/2000/svg"><path d="M876 723v30c0 5.6-4.4 10-10 10s-10-4.4-10-10v-30h-30c-5.6 0-10-4.4-10-10s4.4-10 10-10h30v-30c0-5.6 4.4-10 10-10s10 4.4 10 10v30h30c5.6 0 10 4.4 10 10s-4.4 10-10 10h-30z"/></svg><svg width="100" height="47.8" viewBox="0 0 100 47.8" id="advanced" x="684.5" y="200" xmlns="http://www.w3.org/2000/svg"><path d="M16.1 20.7c.7-1.3 1-3.3 1-6.1v-4.1c0-1.9.2-3.1.7-3.6.4-.5 1.2-.9 2.4-1 .1 0 .3 0 .6-.1 2.8-.4 4.2-1.4 4.2-3.1 0-.8-.4-1.5-1.1-2-.8-.4-1.8-.7-3-.7-2 0-3.8.3-5.4.8-1.6.5-2.9 1.2-3.9 2.2-.8.8-1.4 1.8-1.8 3-.3 1.1-.5 3.1-.5 5.9v3.3c0 3.2-1.5 5-4.6 5.5-.8.1-1.5.2-1.9.4-1 .2-1.7.5-2.2 1s-.6 1-.6 1.8c0 .9.3 1.6.8 2.1s1.3.8 2.5.9c.1 0 .2 0 .3.1 3.8.5 5.7 2.4 5.7 5.7v3.2c0 3 .2 5.2.7 6.4.4 1.3 1.2 2.3 2.3 3.1 1 .7 2.2 1.3 3.8 1.7 1.5.4 3.1.6 4.7.6 1.3 0 2.3-.3 3-.8.8-.5 1.1-1.2 1.1-2 0-1.7-1.3-2.8-3.9-3.1-.5-.1-.9-.1-1.1-.2-1.1-.2-1.8-.5-2.2-1-.4-.5-.6-1.6-.6-3.4v-4.1c0-2.9-.3-5-1-6.2-.7-1.2-1.9-2.3-3.6-3.2 1.7-.6 2.9-1.7 3.6-3zM83.9 20.7c-.7-1.3-1-3.3-1-6.1v-4.1c0-1.9-.2-3.1-.7-3.6-.4-.5-1.2-.9-2.4-1-.1 0-.3 0-.6-.1-2.8-.4-4.2-1.4-4.2-3.1 0-.8.4-1.5 1.1-2 .8-.4 1.8-.7 3-.7 2 0 3.8.3 5.4.8 1.6.5 2.9 1.2 3.9 2.2.8.8 1.4 1.8 1.8 3 .3 1.1.5 3.1.5 5.9v3.3c0 3.2 1.5 5 4.6 5.5.8.1 1.5.2 1.9.4 1 .2 1.7.5 2.2 1 .4.5.7 1.1.7 1.9 0 .9-.3 1.6-.8 2.1s-1.3.8-2.5.9c-.1 0-.2 0-.3.1-3.8.5-5.7 2.4-5.7 5.7V36c0 3-.2 5.2-.7 6.4-.4 1.3-1.2 2.3-2.3 3.1-1 .7-2.2 1.3-3.8 1.7-1.5.4-3.1.6-4.7.6-1.3 0-2.3-.3-3-.8-.8-.5-1.1-1.2-1.1-2 0-1.7 1.3-2.8 3.9-3.1.5-.1.9-.1 1.1-.2 1.1-.2 1.8-.5 2.2-1 .4-.5.6-1.6.6-3.4v-4.1c0-2.9.3-5 1-6.2.7-1.2 1.9-2.3 3.6-3.2-1.8-.7-3-1.8-3.7-3.1zM32.6 17.4c3.6 0 6.5 2.9 6.5 6.5s-2.9 6.5-6.5 6.5-6.5-2.9-6.5-6.5 2.9-6.5 6.5-6.5zM50 17.4c3.6 0 6.5 2.9 6.5 6.5s-2.9 6.5-6.5 6.5-6.5-2.9-6.5-6.5 2.9-6.5 6.5-6.5zM67.4 17.4c3.6 0 6.5 2.9 6.5 6.5s-2.9 6.5-6.5 6.5-6.5-2.9-6.5-6.5 2.9-6.5 6.5-6.5z"/></svg><svg width="100" height="100" viewBox="0 0 100 100" id="advertising" x="438.5" xmlns="http://www.w3.org/2000/svg"><path d="M50 5c24.8 0 45 20.2 45 45S74.8 95 50 95 5 74.8 5 50 25.2 5 50 5m0-5C22.4 0 0 22.4 0 50s22.4 50 50 50 50-22.4 50-50S77.6 0 50 0z"/><path d="M46.4 72.6c-4.5-.3-8.7-1.6-11.4-3.4v-9.5c3.4 2.6 7.9 4.8 13 4.8 4.2 0 7.7-1.3 7.7-5 0-3.4-2.9-4.8-7.9-6.1-9.3-2.4-13.2-6.1-13.2-13.7 0-7.1 5.3-11.9 12.2-13V20h7.4v6.9c3.4.5 6.3 1.6 8.7 3.2v9.3c-3.7-2.9-7.4-4.5-12.4-4.5-4 0-6.3 1.9-6.3 4.5 0 3.4 2.6 4.5 8.2 5.8 9.3 2.4 13.2 6.3 13.2 14 0 7.4-5 11.4-11.6 13V80h-7.4l-.2-7.4z"/></svg><svg width="100" height="77.3" viewBox="0 0 100 77.3" id="airplay" x="438.5" y="273.6" xmlns="http://www.w3.org/2000/svg"><path d="M90.9 9.1v45.4H68.2l9.1 9.1h20.5c1.2.1 2.2-.8 2.3-2V2.2c.1-1.2-.8-2.2-2-2.3H2.4C1.2-.2.2.7.1 1.9v59.4c-.1 1.2.8 2.2 2 2.3h20.7l9.1-9.1H9.2V9.1h81.7M22.7 77.3L50 45.5l27.3 31.8H22.7z"/></svg><svg width="100.3" height="82.5" viewBox="0 0 100.3 82.5" id="analytics" x="133.5" y="200" xmlns="http://www.w3.org/2000/svg"><path d="M33.8 35.7L0 17.9l2.4-4.6 30.7 16.2L67.4 0l32.2 12.6-1.9 4.9L68.5 6zM.3 43.5h14v39H.3zM29.3 56.5h13v26h-13zM58.3 32.5h13v50h-13zM87.3 48.5h13v34h-13z"/></svg><svg width="61.1" height="100" viewBox="31.7 11.5 61.1 100" id="arrow-left" x="538.5" xmlns="http://www.w3.org/2000/svg"><path d="M89.6 14.7c4.3 4.3 4.3 11.3 0 15.5L58.4 61.5l31.2 31.2c4.3 4.3 4.3 11.3 0 15.5-4.3 4.3-11.3 4.3-15.7 0l-39-39c-4.3-4.3-4.3-11.3 0-15.5l39.1-39c4.3-4.3 11.3-4.3 15.6 0z"/></svg><svg width="61.3" height="100" viewBox="23.5 27.5 61.3 100" id="arrow-right" x="684.5" y="100" xmlns="http://www.w3.org/2000/svg"><path d="M42.5 30.7l39.1 39c4.3 4.3 4.3 11.3 0 15.5l-39.1 39c-4.3 4.3-11.3 4.3-15.7 0-4.3-4.3-4.3-11.3 0-15.5l31.3-31.2-31.3-31.2c-4.3-4.3-4.3-11.3 0-15.5 4.3-4.4 11.3-4.4 15.7-.1z"/></svg><svg width="100" height="100" viewBox="-390 295 100 100" id="audio" x="684.5" y="247.8" xmlns="http://www.w3.org/2000/svg"><path d="M-365 391.7v3.3c-13.8 0-25-11.2-25-25 0-3.7.8-7.1 2.2-10.3-1.4-4.7-2.2-9.6-2.2-14.7 0-27.6 22.4-50 50-50s50 22.4 50 50c0 5.1-.8 10.1-2.2 14.7 1.4 3.1 2.2 6.6 2.2 10.3 0 13.8-11.2 25-25 25v-50c6.2 0 11.9 2.3 16.2 6 .3-2 .4-4 .4-6 0-23-18.7-41.7-41.7-41.7s-41.7 18.7-41.7 41.7c0 2 .1 4 .4 6 4.4-3.7 10-6 16.2-6V391.7h.2z"/></svg><svg width="100" height="63.5" viewBox="430 496.5 100 63.5" id="billing" x="100" y="500" xmlns="http://www.w3.org/2000/svg"><path d="M430 516.8v36.1c0 3.9 3.2 7.1 7 7.1h86c3.9 0 7-3.2 7-7.1v-36.1H430zm92.6 35.6H505v-10.1h17.6v10.1zM530 506.6v-3.1c0-3.9-3.2-7-7-7h-85.9c-3.9 0-7 3.2-7 7v3.1H530z"/></svg><svg width="94.5" height="100" viewBox="42.3 23.9 94.5 100" id="calendar" y="764.3" xmlns="http://www.w3.org/2000/svg"><path d="M125.3 123.9h-72c-6.3 0-11-4.9-11-11V46.1c0-6.3 4.5-11.4 10.8-11.4h5.3v-8.1c0-1.6 1-2.8 2.8-2.8h8.1c1.6 0 2.8 1 2.8 2.8v8.1h35v-8.1c0-1.6 1-2.8 2.8-2.8h8.1c1.6 0 2.8 1 2.8 2.8v8.1h5.3c6.3 0 10.8 5.3 10.8 11.4v66.7c-.2 6.2-5.3 11.1-11.6 11.1zm-72.2-62l.2 51h72.4l.2-51H53.1z"/><path d="M85.4 67.2h8.1v8.1h-8.1v-8.1zM96.2 67.2h8.1v8.1h-8.1v-8.1zM107 67.2h8.1v8.1H107v-8.1zM85.4 78h8.1v8.1h-8.1V78zM74.7 78h8.1v8.1h-8.1V78zM63.9 78H72v8.1h-8.1V78zM96.2 78h8.1v8.1h-8.1V78zM107 78h8.1v8.1H107V78zM85.4 88.9h8.1V97h-8.1v-8.1zM74.7 88.9h8.1V97h-8.1v-8.1zM63.9 88.9H72V97h-8.1v-8.1zM96.2 88.9h8.1V97h-8.1v-8.1zM107 88.9h8.1V97H107v-8.1zM85.4 99.7h8.1v8.1h-8.1v-8.1zM74.7 99.7h8.1v8.1h-8.1v-8.1zM63.9 99.7H72v8.1h-8.1v-8.1zM96.2 99.7h8.1v8.1h-8.1v-8.1z"/></svg><svg width="100" height="50" viewBox="0 0 100 50" id="camera-info" x="338.5" y="240.3" xmlns="http://www.w3.org/2000/svg"><path fill-rule="evenodd" clip-rule="evenodd" d="M92.9 42.9L75 35.7c-1.3 0-2.5-.4-3.6-1v8.1c0 3.9-3.2 7.1-7.1 7.1H7.1c-3.9.1-7.1-3.1-7.1-7V7.1C0 3.2 3.2 0 7.1 0h57.1c3.9 0 7.1 3.2 7.1 7.1v8.1c1.1-.6 2.3-1 3.6-1l17.9-7.1c3.9 0 7.1 3.2 7.1 7.1v21.4c.1 4.1-3.1 7.3-7 7.3z"/><path fill="#FFF" d="M33 10.2c-.5.3-.8.7-1 1-.2.3-.3.7-.3 1.1 0 .4.1.7.4 1 .2.3.6.7 1.1 1l1.8 1.2 1.9-1.3c.4-.3.7-.6.9-.9.2-.3.3-.6.3-1s-.1-.7-.3-1.1c-.2-.3-.6-.7-1-1L35 9l-2 1.2zm.8 9.8c-1.3.3-2.7.5-4.1.7l.3 1.6H30.9c.7 0 1.2.2 1.4.6.2.4.4 1.4.4 2.9v7.3c0 3.1-.9 4.7-2.6 4.7h-.4v1.7c1.2-.1 2.2-.1 3.1-.2.9 0 1.5-.1 2.1-.1.6 0 1.4 0 2.3.1.9 0 2 .1 3.2.2v-1.7h-.6c-.9 0-1.5-.2-1.8-.7-.3-.4-.5-1.4-.5-3v-2.3c0-1.4 0-3.1.1-5.3 0-2.1.1-4.7.2-7.5-1.4.4-2.7.7-4 1z"/></svg><svg width="88.9" height="100" viewBox="-595 351 88.9 100" id="change-arrow-down" x="200.4" y="300" xmlns="http://www.w3.org/2000/svg"><path d="M-543.3 448.2c-3.8 3.7-10 3.7-14 0l-34.8-33.5c-3.9-3.7-3.9-9.5 0-13.4 3.8-3.9 10-3.7 14 0l16.5 16v-54.7c0-6.5 4.8-11.6 11-11.6s11 5.1 11 11.6v54.6l16.5-16c3.8-3.7 10-3.7 14 0 3.8 3.7 3.8 9.5 0 13.3l-34.2 33.7z"/></svg><svg width="88.9" height="100" viewBox="-595 351 88.9 100" id="change-arrow-up" x="289.3" y="300" xmlns="http://www.w3.org/2000/svg"><path d="M-509.1 387.5c3.8 3.8 3.8 9.6 0 13.3-4 3.7-10.2 3.7-14 0l-16.5-16v54.6c0 6.5-4.8 11.6-11 11.6s-11-5.1-11-11.6v-54.7l-16.5 16c-4 3.7-10.2 3.9-14 0-3.9-3.9-3.9-9.7 0-13.4l34.8-33.5c4-3.7 10.2-3.7 14 0l34.2 33.7z"/></svg><svg width="133.5" height="100" viewBox="15.6 16 133.5 100" id="check" y="200" xmlns="http://www.w3.org/2000/svg"><path d="M145.5 36.9l-76.1 75.4c-4.8 4.8-12.7 4.8-17.5 0L19.2 80c-4.8-4.8-4.8-12.6 0-17.4s12.7-4.8 17.5 0l23.9 23.6 67.3-66.8c4.8-4.8 12.7-4.8 17.5 0 4.9 5 4.9 12.7.1 17.5z"/></svg><svg width="100" height="73.6" viewBox="0 0 100 73.6" id="chromecast" x="438.5" y="100" xmlns="http://www.w3.org/2000/svg"><path d="M34.6 73.6h-6.5c0-15.5-12.5-28.1-28-28.1H0V39c19.1 0 34.6 15.5 34.6 34.6zM0 51.9v6.5c8.3.1 15.1 6.8 15.1 15.1h6.5C21.7 61.7 12.2 52 .4 51.9H0zm0 13v8.7h8.7c-.1-4.8-3.9-8.7-8.7-8.7zM97.4 0H6.5C5.4-.1 4.4.8 4.3 1.9v26.7c2.9.3 5.8.9 8.7 1.7V8.7h77.9v51.9H43.7c.8 2.8 1.4 5.7 1.7 8.7h52.4c1.1.1 2.1-.8 2.2-1.9V2.2C99.7.9 98.6 0 97.4 0z"/></svg><svg width="100" height="100" viewBox="13 0 100 100" id="close" x="438.5" y="173.6" xmlns="http://www.w3.org/2000/svg"><path d="M81.5 50l27.7 27.7c5 5 5 13.3 0 18.5-5 5-13.3 5-18.5 0L63 68.5 35.3 96.2c-5 5-13.3 5-18.5 0-5-5-5-13.3 0-18.5L44.5 50 16.8 22.3c-5-5-5-13.3 0-18.5 5-5 13.3-5 18.5 0L63 31.5 90.7 3.8c5-5 13.3-5 18.5 0 5 5 5 13.3 0 18.5L81.5 50z"/></svg><svg width="98.9" height="66.2" viewBox="-700 535.6 98.9 66.2" id="cloud" x="500" y="664.3" xmlns="http://www.w3.org/2000/svg"><path d="M-623.4 553c-3.1-10.1-12.6-17.4-23.7-17.4-8.8 0-16.5 4.5-20.9 11.4-1.5-.6-3.2-1-5-1-7.3 0-13.2 5.9-13.2 13.1 0 .8.1 1.6.2 2.4-8.1 2.7-14 10.4-14 19.5 0 11.3 9.1 20.4 20.3 20.6l5.9.2h49v-.2c13-.3 23.7-11.1 23.7-24.3 0-12.8-9.8-23.2-22.3-24.3zm-3.4 38.6c0 .7-.5 1.2-1.2 1.2h-42.6c-.7 0-1.2-.5-1.2-1.2v-27.7c0-.7.5-1.2 1.2-1.2h42.6c.7 0 1.2.5 1.2 1.2v27.7z"/><path d="M-639.5 577.4l-14.6-7.3c-.4-.2-.9.1-.9.5v14.7c0 .4.5.7.9.5l14.6-7.3c.5-.3.5-.9 0-1.1z"/></svg><svg width="98.9" height="66.2" viewBox="-1050 803.4 98.9 66.2" id="cloud-basic" x="493.2" y="564.3" xmlns="http://www.w3.org/2000/svg"><path d="M-973.4 820.8c-3.1-10.1-12.6-17.4-23.7-17.4-8.8 0-16.5 4.5-20.9 11.4-1.5-.6-3.2-1-5-1-7.3 0-13.2 5.9-13.2 13.1 0 .8.1 1.6.2 2.4-8.1 2.7-14 10.4-14 19.5 0 11.3 9.1 20.4 20.3 20.6l5.9.2h49v-.2c13-.3 23.7-11.1 23.7-24.3 0-12.8-9.8-23.2-22.3-24.3z"/></svg><svg width="163" height="100" viewBox="17.5 11.1 163 100" id="collapse" y="100" xmlns="http://www.w3.org/2000/svg"><path d="M22.6 80.2l63.6-63.8c7.1-7.1 18.5-7.1 25.4 0l63.6 63.8c7.1 7.1 7.1 18.5 0 25.6-7.1 7.1-18.5 7.1-25.4 0L98.9 54.6l-50.7 51.1c-7.1 7.1-18.5 7.1-25.4 0-7-7-7-18.4-.2-25.5z"/></svg><svg width="87.5" height="100" viewBox="0 0 87.5 100" id="cube" x="196.4" y="400" xmlns="http://www.w3.org/2000/svg"><path d="M46.2 52.2V100l41.3-23.9V28.3L46.2 52.2zM43.7 0L2.5 23.9l41.3 23.9L85 23.9 43.7 0zM0 76.1L41.3 100V52.2L0 28.3v47.8z"/></svg><svg width="100" height="100" viewBox="0 0 100 100" id="customize" x="283.9" y="400" xmlns="http://www.w3.org/2000/svg"><path d="M73.3 44c0 12.6-10.6 22.6-23.3 22.6S26.7 56.4 26.7 44c0-12.6 15.5-25 23.3-44 8.3 18.1 23.3 31.4 23.3 44zM6.7 86.7h86.7a6.7 6.7 0 0 1 0 13.4H6.7C3 100 0 97 0 93.3c0-3.6 3-6.6 6.7-6.6z"/></svg><svg width="100" height="87.5" viewBox="-249 357.5 100 87.5" id="database" x="383.9" y="400" xmlns="http://www.w3.org/2000/svg"><path d="M-152 382.5c1.7 0 3-1.4 3-3v-19c0-1.6-1.3-3-3-3h-94c-1.6 0-3 1.4-3 3v19c0 1.6 1.4 3 3 3h6v6.2h-6c-1.6 0-3 1.3-3 3v19c0 1.7 1.4 3 3 3h6v6.3h-6c-1.6 0-3 1.3-3 3v19c0 1.7 1.4 3 3 3h94c1.7 0 3-1.3 3-3v-19c0-1.7-1.3-3-3-3h-6v-6.3h6c1.7 0 3-1.3 3-3v-19c0-1.7-1.3-3-3-3h-6v-6.2h6zm-71.4-16.3c2.1 0 3.8 1.7 3.8 3.8s-1.7 3.8-3.8 3.8c-2.1 0-3.8-1.7-3.8-3.8s1.7-3.8 3.8-3.8zm-13.7 70.1c-2.1 0-3.8-1.7-3.8-3.8s1.7-3.8 3.8-3.8c2.1 0 3.8 1.7 3.8 3.8s-1.7 3.8-3.8 3.8zm0-31.2c-2.1 0-3.8-1.7-3.8-3.8s1.7-3.8 3.8-3.8c2.1 0 3.8 1.7 3.8 3.8s-1.7 3.8-3.8 3.8zm0-31.3c-2.1 0-3.8-1.7-3.8-3.8s1.7-3.8 3.8-3.8c2.1 0 3.8 1.7 3.8 3.8s-1.7 3.8-3.8 3.8zm13.7 62.5c-2.1 0-3.8-1.7-3.8-3.8s1.7-3.8 3.8-3.8c2.1 0 3.8 1.7 3.8 3.8s-1.7 3.8-3.8 3.8zM-165 420h-68v-6.3h68v6.3zm-62.2-18.7c0-2.1 1.7-3.8 3.8-3.8 2.1 0 3.8 1.7 3.8 3.8s-1.7 3.8-3.8 3.8c-2.1 0-3.8-1.7-3.8-3.8zm62.2-12.6h-68v-6.2h68v6.2z"/></svg><svg width="100.2" height="100" viewBox="49.3 53.6 100.2 100" id="delete" y="300" xmlns="http://www.w3.org/2000/svg"><path d="M142.2 82h-7.1v64.5c0 4-3.1 7.1-7.1 7.1H70.6c-4 0-7.1-3.1-7.1-7.1V82h-7.1c-4 0-7.1-3.1-7.1-7.1 0-4 3.1-7.1 7.1-7.1h14.4v-7.1c0-4 3.1-7.1 7.1-7.1h43c4 0 7.1 3.1 7.1 7.1v7.1h14.4c4 0 7.1 3.1 7.1 7.1-.2 4-3.4 7.1-7.3 7.1zm-64.5 57.2h43V89.1h-43v50.1z"/></svg><svg width="100" height="66.7" viewBox="0 0 100 66.7" id="desktop" x="233.8" y="200" xmlns="http://www.w3.org/2000/svg"><path d="M95.3 55.2H4.7V4.5h90.7M97.8 0H2.2C1 0 0 1 0 2.1v55.4c0 1.2 1 2.1 2.2 2.1h95.6c1.2 0 2.2-1 2.2-2.1V2.1C100 1 99 0 97.8 0zM40.1 61.3h19.4v2.1H40.1v-2.1zM31.1 64.6h37.3v2.1H31.1v-2.1z"/></svg><svg width="84.9" height="100" viewBox="437.6 460 84.9 100" id="developer" x="599.6" xmlns="http://www.w3.org/2000/svg"><path d="M519.7 482.8l-36.8-22.1c-1.8-.9-3.9-.9-5.6 0l-36.8 22.1c-1.7 1.2-2.8 3-2.9 5.1v44.2c.1 2.1 1.2 3.9 2.9 5.1l36.9 22.1c1.8.9 3.9.9 5.7 0l36.7-22.1c1.6-1.2 2.6-3.1 2.7-5.1v-44.2c-.1-2-1.1-3.9-2.8-5.1zm-19 5.2c-.5 2.2-7.6 28.6-8.4 31.3-.8 2.8-1.7 5.6-2.7 8.3-.5 1.3-1 2.6-1.7 3.8-.5.9-1.2 1.6-2 2.2-1.1.7-2.5.7-3.7.2-1.1-.5-1.9-1.5-2.3-2.6-.5-1.2-.7-2.5-.7-3.8 0-5.3.4-19.1.4-19.1 0-.8-.2-.9-.5-.1 0 0-3.4 8.2-4.7 10.8-.6 1.2-1.2 2.4-2 3.5-.3.5-.8.9-1.3 1.2-.4.2-.7.3-1.1.4-.8.1-1.6-.1-2.3-.6-.6-.6-1.1-1.3-1.3-2.1-.3-1.6-.5-3.2-.4-4.8 0-3.4.2-11 .2-11 0-.8-.2-.9-.5-.1 0 0-2.7 7.7-3.2 9-.4 1.1-.9 2.4-2 3-1 .5-2.3.1-2.8-.9 0-.1-.1-.1-.1-.2-.6-1.1-1.5-6.3-1.7-7.6-.1-.4-.1-.9-.1-1.3.1-.5.4-.9.9-1.1.5-.2 1.1 0 1.4.4.2.3.4.7.5 1.1.4 1.2.7 2.2.7 2.2l.2.7c.1.4.3.4.4 0l.2-.7s2.2-7.5 2.6-8.8c.7-2.1 1.8-5.4 4.5-5.2 2.8.2 3.3 3.9 3.5 6.1.1 1.5.3 7.7.3 7.7 0 .8.2.9.5.1 0 0 4.7-14.4 5.5-15.9.5-1.2 1.4-2.2 2.4-2.9 1-.7 2.2-1 3.4-.8 2.5.4 4.3 2.6 4.3 6.4 0 7-.1 15.5-.1 15.5 0 .8.2.9.5.1 0 0 9.7-24.4 10.1-25.2.3-.8 1.2-1.1 2-.8.5.2.9.7.9 1.3.3-.2.2 0 .2.3z"/></svg><svg width="100" height="64.3" viewBox="0 0 100 64.3" id="device-landscape" y="500" xmlns="http://www.w3.org/2000/svg"><path d="M94.7 0H5.3C2.4 0 0 2.4 0 5.3v53.6c0 2.9 2.4 5.3 5.3 5.3h89.3c2.9 0 5.3-2.4 5.3-5.3V5.3C100 2.4 97.6 0 94.7 0zM8.4 35.6c-1.9 0-3.5-1.6-3.5-3.5s1.6-3.5 3.5-3.5 3.5 1.6 3.5 3.5c0 2-1.5 3.5-3.5 3.5zm82.2 24.5H16.3V4.2h74.4v55.9zm5.3-23.4h-1v-9h1v9z"/></svg><svg width="53.4" height="100" viewBox="0 0 53.4 100" id="device-portrait" x="599.6" y="100" xmlns="http://www.w3.org/2000/svg"><path d="M45.3 0H8.1C3.6 0 0 3.6 0 8v84c0 4.4 3.6 8 8.1 8h37.2c4.5 0 8.1-3.6 8.1-8V8c0-4.4-3.7-8-8.1-8zM21.6 5.5h10.2v.8H21.6v-.8zm4.8 90.2c-2.2 0-4.1-1.8-4.1-4.1 0-2.2 1.8-4.1 4.1-4.1 2.2 0 4.1 1.8 4.1 4.1-.1 2.3-1.9 4.1-4.1 4.1zm22.8-11.9h-45V12.1h45v71.7z"/></svg><svg width="50" height="64.3" viewBox="0 0 50 64.3" id="documentation" x="538.5" y="100" xmlns="http://www.w3.org/2000/svg"><path d="M42.9 0H7.1C3.2 0 0 3.2 0 7.1v50c0 3.9 3.2 7.1 7.1 7.1h35.7c3.9 0 7.1-3.2 7.1-7.1v-50c.1-3.9-3.1-7.1-7-7.1zm-3.6 50H10.7v-3.6h28.6V50zm0-10.7H10.7v-3.6h28.6v3.6zm0-10.7H10.7V25h28.6v3.6zm0-10.7H10.7v-3.6h28.6v3.6z"/></svg><svg width="93.2" height="100" viewBox="38.4 20.8 93.2 100" id="download" x="100" y="564.3" xmlns="http://www.w3.org/2000/svg"><path d="M125.2 120.8H45c-3.7 0-6.6-2.9-6.6-6.6V87.5c0-3.7 2.9-6.6 6.6-6.6s6.6 2.9 6.6 6.6v20h66.7v-20c0-3.7 2.9-6.6 6.6-6.6 3.7 0 6.6 2.9 6.6 6.6v26.7c.3 3.7-2.6 6.6-6.3 6.6zm-36-38.3c-2.3 2.1-6 2.1-8.4 0L60 63.4c-2.3-2.1-2.3-5.4 0-7.6 2.3-2.1 6-2.1 8.4 0l9.9 9.1V27.4c0-3.7 2.9-6.6 6.6-6.6s6.6 2.9 6.6 6.6v37.4l9.9-9.1c2.3-2.1 6-2.1 8.4 0 2.3 2.1 2.3 5.4 0 7.6L89.2 82.5z"/></svg><svg width="100" height="87.5" viewBox="0 0 100 87.5" id="drag" x="193.2" y="564.3" xmlns="http://www.w3.org/2000/svg"><path d="M6.2 0h87.5c3.5 0 6.2 2.8 6.2 6.2s-2.8 6.2-6.2 6.2H6.2C2.8 12.5 0 9.7 0 6.2S2.8 0 6.2 0zM6.2 37.5h87.5c3.5 0 6.2 2.8 6.2 6.2 0 3.5-2.8 6.2-6.2 6.2H6.2C2.8 50 0 47.2 0 43.8c0-3.5 2.8-6.3 6.2-6.3zM6.2 75h87.5c3.5 0 6.2 2.8 6.2 6.2 0 3.5-2.8 6.2-6.2 6.2H6.2c-3.5 0-6.2-2.8-6.2-6.2C0 77.8 2.8 75 6.2 75z"/></svg><svg width="100" height="78.9" viewBox="0 0 100 78.9" id="duplicate" x="293.2" y="564.3" xmlns="http://www.w3.org/2000/svg"><path fill-rule="evenodd" clip-rule="evenodd" d="M94.7 78.9H26.3c-2.9 0-5.3-2.4-5.3-5.3V57.9H5.3c-2.9 0-5.3-2.4-5.3-5.3V5.3C0 2.4 2.4 0 5.3 0h68.4C76.6 0 79 2.4 79 5.3v15.8h15.8c2.9 0 5.3 2.4 5.3 5.3v47.4c-.1 2.8-2.5 5.1-5.4 5.1zM68.4 15.8c0-2.9-2.4-5.3-5.3-5.3H15.8c-2.9 0-5.3 2.4-5.3 5.3v26.3c0 2.9 2.4 5.3 5.3 5.3h5.3V26.3c0-2.9 2.4-5.3 5.3-5.3h42.1v-5.2zm21.1 21c0-2.9-2.4-5.3-5.3-5.3H36.8c-2.9 0-5.3 2.4-5.3 5.3v26.3c0 2.9 2.4 5.3 5.3 5.3h47.4c2.9 0 5.3-2.4 5.3-5.3V36.8zM71.1 52.6h-7.9v7.9c0 1.5-1.2 2.6-2.6 2.6-1.5 0-2.6-1.2-2.6-2.6v-7.9h-8c-1.5 0-2.6-1.2-2.6-2.6 0-1.5 1.2-2.6 2.6-2.6h7.9v-7.9c0-1.5 1.2-2.6 2.6-2.6 1.5 0 2.6 1.2 2.6 2.6v7.9H71c1.5 0 2.6 1.2 2.6 2.6.1 1.5-1.1 2.6-2.5 2.6z"/></svg><svg width="100" height="100" viewBox="0 0 100 100" id="edit" x="684.5" xmlns="http://www.w3.org/2000/svg"><path d="M0 75.9V100h25L0 75.9zM82.7 1.6l15.7 15.7c2.2 2.2 2.2 5.7 0 7.8L35.8 87.7c-2.2 2.2-5.7 2.2-7.8 0L12.3 72.1c-2.2-2.2-2.2-5.7 0-7.8L74.9 1.6c2.2-2.1 5.7-2.1 7.8 0z"/></svg><svg width="175.5" height="100" viewBox="0 5.2 175.5 100" id="embed" xmlns="http://www.w3.org/2000/svg"><path d="M116.2 6.4c3.9 2.3 5.3 7.2 3 11.1l-48.8 83.8c-2.3 3.9-7.2 5.1-11.1 3-3.9-2.3-5.3-7.2-3-11.1l48.8-83.8c2.1-4.1 7.2-5.3 11.1-3zM143.9 23.2l29.2 29.2c3.2 3.2 3.2 8.4 0 11.6l-29.2 29.2c-3.2 3.2-8.4 3.2-11.8 0-3.2-3.2-3.2-8.4 0-11.6l23.4-23.4-23.4-23.4c-3.2-3.2-3.2-8.4 0-11.6 3.4-3.3 8.5-3.3 11.8 0zM43.3 23.2c3.2 3.2 3.2 8.4 0 11.6L19.9 58.2l23.4 23.4c3.2 3.2 3.2 8.4 0 11.6-3.2 3.2-8.4 3.2-11.8 0L2.4 64c-3.2-3.2-3.2-8.4 0-11.6l29.2-29.2c3.3-3.3 8.4-3.3 11.7 0z"/></svg><svg width="163" height="100" viewBox="46.4 345 163 100" id="expand" x="175.5" xmlns="http://www.w3.org/2000/svg"><path d="M51.6 350.3c7.1-7.1 18.5-7.1 25.4 0l50.9 50.9 50.9-50.9c7.1-7.1 18.5-7.1 25.4 0 7.1 7.1 7.1 18.5 0 25.6l-63.6 63.8c-7.1 7.1-18.5 7.1-25.4 0l-63.6-63.8c-6.9-7.1-6.9-18.5 0-25.6z"/></svg><svg width="100.2" height="100" viewBox="35.9 260 100.2 100" id="external-page" x="100.2" y="300" xmlns="http://www.w3.org/2000/svg"><path d="M128.2 321.5c-4.2 0-7.7-3.5-7.7-7.7v-31.2l-36.7 36.7c-2.9 2.9-7.9 2.9-10.8 0-2.9-2.9-2.9-7.9 0-10.8l32.9-32.9H82.1c-4.2 0-7.7-3.5-7.7-7.7s3.5-7.7 7.7-7.7h46.2c4.2 0 7.7 3.5 7.7 7.7V314c-.1 4.1-3.6 7.5-7.8 7.5zm-15.4 30.8c0 4.2-3.5 7.7-7.7 7.7H43.6c-4.2 0-7.7-3.5-7.7-7.7v-53.8c0-4.2 3.5-7.7 7.7-7.7s7.7 3.5 7.7 7.7v46.2h53.8c4.3-.1 7.7 3.4 7.7 7.6z"/></svg><svg width="100" height="100" viewBox="0 0 100 100" id="fail-alert" x="684.5" y="347.8" xmlns="http://www.w3.org/2000/svg"><path d="M50 9.3c22.5 0 40.7 18.3 40.7 40.7S72.5 90.7 50 90.7 9.3 72.5 9.3 50 27.5 9.3 50 9.3M50 0C22.4 0 0 22.4 0 50s22.4 50 50 50 50-22.4 50-50S77.6 0 50 0z"/><path d="M49.7 56.3c3.2 0 4.9-3 4.9-6.2l.9-22.6c0-3.2-2.6-5.8-5.8-5.8s-5.8 2.6-5.8 5.8l.9 23.5c0 3.1 1.7 5.3 4.9 5.3z"/><circle cx="49.7" cy="68.2" r="5.8"/></svg><svg width="86.9" height="100" viewBox="0 0 86.9 100" id="hexagon" x="684.5" y="447.8" xmlns="http://www.w3.org/2000/svg"><path d="M0 28.2c0-2 1.4-4.6 3.2-5.6L40.2.8c1.8-1 4.6-1 6.4 0l37 21.8c1.8 1 3.2 3.6 3.2 5.6v43.7c0 2-1.4 4.6-3.2 5.6l-37 21.8c-1.8 1-4.6 1-6.4 0l-37-21.8c-1.8-1-3.2-3.6-3.2-5.6V28.2z"/></svg><svg width="100" height="100" viewBox="0 0 100 100" id="home" x="684.5" y="547.8" xmlns="http://www.w3.org/2000/svg"><path fill-rule="evenodd" clip-rule="evenodd" d="M63.6 100V72.7H36.4V100H0V36.4L45.5 0h9.1L100 36.4V100H63.6z"/></svg><svg width="48" height="48" viewBox="0 0 48 48" id="hyperlink-arrow" x="538.5" y="164.3" xmlns="http://www.w3.org/2000/svg"><g fill="none" fill-rule="evenodd"><path d="M14 24h20" fill="none"/><path d="M14 24h20" stroke="#000" stroke-width="2" stroke-linecap="round" stroke-linejoin="round"/><path fill="none" d="M27 17l7 7-7 7"/><path stroke="#000" stroke-width="2" stroke-linecap="round" stroke-linejoin="round" d="M27 17l7 7-7 7"/></g></svg><svg width="100" height="100" viewBox="0 0 100 100" id="in-progress" y="664.3" xmlns="http://www.w3.org/2000/svg"><path d="M70.8 66.6L53 49.4V25c0-2.7-1.8-4.8-4.5-4.8S44 22.3 44 25v26.4l.3.1c0 .3.2.6.2.9 0 .1.1.2.2.3.1.2.1.4.2.6 0 .1.1.1.1.2.2.5.5 1 .9 1.4l18.7 18.7c1.9 1.9 4.7 1.9 6.5 0 1.9-2 1.6-5.1-.3-7z"/><path d="M50 9.3c22.5 0 40.7 18.3 40.7 40.7S72.5 90.7 50 90.7 9.3 72.5 9.3 50 27.5 9.3 50 9.3M50 0C22.4 0 0 22.4 0 50s22.4 50 50 50 50-22.4 50-50S77.6 0 50 0z"/></svg><svg width="100" height="100" viewBox="-41 272 100 100" id="info" x="100" y="664.3" xmlns="http://www.w3.org/2000/svg"><path d="M9 272c-27.7 0-50 22.3-50 50s22.3 50 50 50 50-22.3 50-50-22.3-50-50-50zm1.9 82.1c-2.9 0-5.4-2.5-5.4-5.4s2.5-5.4 5.4-5.4 5.4 2.5 5.4 5.4-2.5 5.4-5.4 5.4zm15.8-34.4c-1 1.5-2.9 3.1-5.6 5.4l-2.7 2.1c-1.5 1.2-1.7 3.8-2.3 5.4-.2 1 0 0 0 3.5H5.5c.2-3.5-.4-7.5.2-9.2.6-1.7 2.3-3.8 5.2-6l2.7-2.1c.8-.6 1.7-1.5 2.3-2.3 1-1.5 1.5-2.9 1.5-4.6 0-1.9-.6-3.5-1.7-5.2-1-1.7-3.1-2.3-6.2-2.3-2.9 0-5 1.5-6.2 3.3s-1.9 3.3-1.9 6.9h-11c.2-7.1 2.9-13.3 7.7-16.2 3.1-1.9 6.7-3.8 11.2-3.8 5.8 0 10.6 1.5 14.4 4.2s5.8 6.9 5.8 12.3c-.3 3.6-1.1 6.3-2.8 8.6z"/></svg><svg width="100" height="46" viewBox="-349 278 100 46" id="key" x="438.5" y="350.90000000000003" xmlns="http://www.w3.org/2000/svg"><path d="M-306.6 313h7.4c.5 0 1 .3 1.3-.1l5.1-6.1c.6-.8 1.8-.9 2.5-.1l4.2 4.2c.7.7 1.7.7 2.4 0l4.3-4.3c.7-.7 1.7-.7 2.4 0l4.4 4.4c.7.7 1.7.7 2.4 0l4.4-4.4c.7-.7 1.7-.7 2.4 0l4.3 4.3c.7.7 1.8.6 2.4-.1l7.4-8.3c.6-.6.6-1.7 0-2.3l-8.1-9.3c-.3-.4-.8-.8-1.3-.8h-46.9c-3.9-6.1-11.5-12.1-20.3-12.1-12.8 0-23.1 10.6-23.1 23.3 0 12.8 10.3 22.7 23.1 22.7 8.1 0 15.2-4 19.3-11zm-29.3-17.5c3.3 0 6 2.7 6 6s-2.7 6-6 6-6-2.7-6-6 2.7-6 6-6z"/></svg><svg width="76.2" height="100" viewBox="0 0 76.2 100" id="labs" x="599.6" y="300" xmlns="http://www.w3.org/2000/svg"><path d="M75 85.5L57.2 47.3C55.5 43.6 54 36.9 54 32.8V13.5c0-.1.1-.2.2-.3C55.9 12 57 9.9 57 7.7v-.4c0-4-3.4-7.3-7.5-7.3H27.3c-3.9 0-7.1 3.1-7.1 6.9v.8c0 2.3 1.2 4.3 2.9 5.5.1.1.2.2.2.3v19.4c0 4-1.6 10.8-3.4 14.4L1.2 85.5c-1.7 3.5-1.7 7.2.2 10s5.3 4.5 9.3 4.5h54.6c4 0 7.5-1.6 9.3-4.5 2-2.8 2.1-6.5.4-10zm-9.6 9.7H10.7c-4.9 0-7.2-3.5-5.1-7.8l18.8-38.2c2.1-4.3 3.8-11.6 3.8-16.4V10.2c0-.2-.2-.4-.4-.4h-.5c-1.2 0-2.2-1-2.2-2.2v-.8c0-1.2 1-2.2 2.2-2.2h22.2c1.5 0 2.7 1.1 2.7 2.6 0 1.4-1.2 2.6-2.7 2.6-.2 0-.4.2-.4.4v22.6c0 4.7 1.7 12.2 3.7 16.4l17.9 38.1c1.9 4.4-.4 7.9-5.3 7.9z"/><path d="M58.8 71.8C55.2 64 47.1 59 38.3 59c-8.7 0-16.6 4.8-20.3 12.4l-8 16.3c-.5 1.1-.6 2-.2 2.6.4.6 1.3.9 2.5.9h51.4c1.2 0 2.2-.4 2.6-1 .4-.6.3-1.6-.2-2.7l-7.3-15.7z"/></svg><svg width="100" height="122.7" viewBox="0 0 100 122.7" id="lightbulb" x="338.5" xmlns="http://www.w3.org/2000/svg"><path d="M15.9 49.2c0-1.1-.9-2-2.1-2H2.1c-1.1 0-2.1.9-2.1 2s.9 2 2.1 2h11.7c1.2.1 2.1-.8 2.1-2zM97.9 47.2H86.2c-1.1 0-2.1.9-2.1 2s.9 2 2.1 2h11.7c1.1 0 2.1-.9 2.1-2s-.9-2-2.1-2zM47.9 2v11.6c0 1.1.9 2 2.1 2s2.1-.9 2.1-2V2c0-1.1-.9-2-2.1-2s-2.1.9-2.1 2zM82.4 14.4l-8.3 8.2c-.8.8-.8 2.1 0 2.9.4.4.9.6 1.5.6.5 0 1.1-.2 1.5-.6l8.3-8.2c.8-.8.8-2.1 0-2.9-.9-.8-2.2-.8-3 0zM22.9 73l-8.3 8.2c-.8.8-.8 2.1 0 2.9.4.4.9.6 1.5.6.5 0 1.1-.2 1.5-.6l8.3-8.2c.8-.8.8-2.1 0-2.9-.8-.8-2.1-.8-3 0zM17.6 14.4c-.8-.8-2.1-.8-2.9 0-.8.8-.8 2.1 0 2.9l8.3 8.2c.4.4.9.6 1.5.6.5 0 1.1-.2 1.5-.6.8-.8.8-2.1 0-2.9l-8.4-8.2zM77 73c-.8-.8-2.1-.8-2.9 0-.8.8-.8 2.1 0 2.9l8.3 8.2c.4.4.9.6 1.5.6.5 0 1.1-.2 1.5-.6.8-.8.8-2.1 0-2.9L77 73z"/><path d="M50 21.8c-1.1 0-2.3.1-3.4.2-13.8 1.5-24.9 12.5-26.3 26.1-1 9.2 2.3 18.2 9.1 24.5 4.8 4.5 7.5 10.8 7.5 17.5v16.4c0 4 2.7 7.4 6.3 8.7v.9c0 3.6 3 6.6 6.7 6.6s6.7-3 6.7-6.6v-.9c3.7-1.2 6.5-4.6 6.5-8.7V90.1c0-6.6 2.8-12.9 7.8-17.8 5.8-5.6 9-13.1 9-21 0-16.2-13.4-29.5-29.9-29.5zm1.1 94.3c0 .7-.5 1.2-1.2 1.2s-1.2-.5-1.2-1.2v-.5h2.4v.5zm2.7-5.9h-7.7c-2.1 0-3.8-1.7-3.8-3.7v-6h15.2v6c.1 2-1.6 3.7-3.7 3.7zm13.3-41.7C61 74.3 57.6 82 57.6 90.1v6.4h-5.2V60.6h7.8c1.1 0 2.1-.9 2.1-2s-.9-2-2.1-2H41.7c-1.1 0-2.1.9-2.1 2s.9 2 2.1 2h6.6v35.8h-5.9V90c0-8.1-3.4-15.9-9.2-21.4-5.5-5.2-8.3-12.5-7.4-20C27 37.5 36 28.6 47.3 27.4c.9-.1 1.9-.2 2.8-.2 13.5 0 24.4 10.8 24.4 24-.1 6.6-2.7 12.7-7.4 17.3z"/></svg><svg width="100" height="99.7" viewBox="0 0 100 99.7" id="link" x="200" y="664.3" xmlns="http://www.w3.org/2000/svg"><path d="M43.6 26.5L35.1 18c-4.7-4.7-12.3-4.7-17 0-4.7 4.7-4.7 12.3 0 16.9l17 16.9c4.7 4.7 12.2 4.7 16.9.1l8.5 8.5-4.2 4.2c-7 7-18.5 7-25.5 0L5.3 39.2c-7-7-7-18.4 0-25.4l8.5-8.5c7-7 18.5-7 25.5 0L52.1 18l-8.5 8.5z"/><path d="M56.4 73.2l8.5 8.5c4.7 4.7 12.3 4.7 17 0 4.7-4.7 4.7-12.3 0-16.9l-17-16.9c-4.7-4.7-12.2-4.7-16.9-.1l-8.5-8.5 4.2-4.2c7-7 18.5-7 25.5 0l25.5 25.4c7 7 7 18.4 0 25.4l-8.5 8.5c-7 7-18.5 7-25.5 0L47.9 81.7l8.5-8.5z"/></svg><svg width="68.8" height="100" viewBox="0 0 68.8 100" id="lock" x="599.6" y="400" xmlns="http://www.w3.org/2000/svg"><path d="M34.4 0C15.4 0 0 15.4 0 34.4v59.4c0 3.5 2.8 6.2 6.2 6.2h56.2c3.5 0 6.2-2.8 6.2-6.2V34.4C68.8 15.4 53.4 0 34.4 0zm3.1 74.4v13.1h-6.2V74.4c-3.6-1.3-6.2-4.7-6.2-8.8 0-5.2 4.2-9.4 9.4-9.4s9.4 4.2 9.4 9.4c-.1 4.1-2.8 7.5-6.4 8.8zm-25-36.9s.1-25 21.9-25c22.1 0 21.9 25 21.9 25H12.5z"/></svg><svg width="100" height="46.8" viewBox="0 0 100 46.8" id="mobile" x="200" y="500" xmlns="http://www.w3.org/2000/svg"><path d="M0 7.1v32.6c0 3.9 3.2 7.1 7.1 7.1h85.8c3.9 0 7.1-3.2 7.1-7.1V7.1c0-3.9-3.2-7.1-7.1-7.1H7.1C3.2 0 0 3.2 0 7.1zm4 16.3c0-.6.5-1.1 1.1-1.1s1.1.5 1.1 1.1c0 .6-.5 1.1-1.1 1.1S4 24 4 23.4zm3.7 3.5v-7c0-.5.5-1 1-1s1 .5 1 1v7c0 .5-.5 1-1 1-.6 0-1-.4-1-1zm89.5-3.2c0 2.5-2.1 4.5-4.6 4.5-2.5 0-4.6-2-4.6-4.5s2.1-4.5 4.6-4.5c2.5 0 4.6 2 4.6 4.5zm-11.6-20v39.5H14.4V3.7h71.2z"/><path d="M90.6 25.1v-2.8c0-.3.3-.6.6-.6H94c.3 0 .6.3.6.6v2.8c0 .3-.3.6-.6.6h-2.8c-.3 0-.6-.3-.6-.6z"/></svg><svg width="31" height="60" viewBox="0 0 31 60" id="monetize-simple" x="784.5" y="700.9" xmlns="http://www.w3.org/2000/svg"><path d="M11.8 52.6C7.3 52.3 3.1 51 .4 49.2v-9.5c3.4 2.6 7.9 4.8 13 4.8 4.2 0 7.7-1.3 7.7-5 0-3.4-2.9-4.8-7.9-6.1C3.9 31 0 27.3 0 19.7c0-7.1 5.3-11.9 12.2-13V0h7.4v6.9c3.4.5 6.3 1.6 8.7 3.2v9.3c-3.7-2.9-7.4-4.5-12.4-4.5-4 0-6.3 1.9-6.3 4.5 0 3.4 2.6 4.5 8.2 5.8 9.3 2.4 13.2 6.3 13.2 14 0 7.4-5 11.4-11.6 13V60H12l-.2-7.4z"/></svg><svg width="100" height="90" viewBox="430 470 100 90" id="playlist" x="784.5" y="100" xmlns="http://www.w3.org/2000/svg"><path d="M430 470h35v20h-35zM475 476h55v6h-55zM475 512h55v6h-55zM475 547h55v6h-55zM430 505h35v20h-35zM430 540h35v20h-35z"/></svg><svg width="100" height="100" viewBox="0 0 100 100" id="playlist-dynamic" x="784.5" y="190" xmlns="http://www.w3.org/2000/svg"><path fill-rule="evenodd" clip-rule="evenodd" d="M46.2 26.9h26.9v7.7H46.2v-7.7zM46.2 46.2h26.9v7.7H46.2v-7.7zM46.2 65.4h26.9v7.7H46.2v-7.7zM26.9 26.9h11.5v11.5H26.9V26.9zM26.9 46.2h11.5v11.5H26.9V46.2zM26.9 65.4h11.5v11.5H26.9V65.4z"/><path fill-rule="evenodd" clip-rule="evenodd" d="M50 100C22.4 100 0 77.6 0 50S22.4 0 50 0c11.6 0 22.3 4 30.8 10.7V0h3.8v19.2H65.4v-3.8h8.8C67.3 10.6 59 7.7 50 7.7 26.6 7.7 7.7 26.6 7.7 50S26.6 92.3 50 92.3 92.3 73.4 92.3 50c0-6.7-1.6-13-4.4-18.7l5.7-5.7c4 7.2 6.4 15.5 6.4 24.4 0 27.6-22.4 50-50 50z"/></svg><svg width="100" height="59.1" viewBox="0 0 100 59.1" id="playlist-manual" x="784.5" y="290" xmlns="http://www.w3.org/2000/svg"><path fill-rule="evenodd" clip-rule="evenodd" d="M22.7 0h31.8v9.1H22.7V0zM22.7 22.7h31.8v9.1H22.7v-9.1zM22.7 45.5h31.8v9.1H22.7v-9.1zM0 0h13.6v13.6H0V0zM0 22.7h13.6v13.6H0V22.7zM0 45.5h13.6v13.6H0V45.5z"/><path d="M100 27.4L63.6 0l.1 43.7 12.9-10.6 11 21.5 6.5-2.9L83 30.2l17-2.8z"/></svg><svg width="100" height="78.9" viewBox="0 0 100 78.9" id="print" x="784.5" y="349.1" xmlns="http://www.w3.org/2000/svg"><path fill-rule="evenodd" clip-rule="evenodd" fill="#231F20" d="M89.5 57.9h-5.3V36.8H15.8v21.1h-5.3C4.7 57.9 0 53.2 0 47.4V31.6c0-5.8 4.7-10.5 10.5-10.5h78.9c5.8 0 10.5 4.7 10.5 10.5v15.8c.1 5.8-4.6 10.5-10.4 10.5zM21.1 0H79v15.8H21.1V0zm57.8 78.9H21.1V42.1H79v36.8zM68.4 52.6H31.6v5.3h36.8v-5.3zm0 10.6H31.6v5.3h36.8v-5.3z"/></svg><svg width="100" height="100" viewBox="0 0 100 100" id="publish" x="784.5" y="428" xmlns="http://www.w3.org/2000/svg"><path d="M50 22.4C22.4 22.4 0 50 0 50s22.4 27.7 50 27.7S100 50 100 50 77.6 22.4 50 22.4zM50 74c-13.3 0-24-10.7-24-24s10.7-24 24-24 24 10.7 24 24-10.7 24-24 24z"/><path d="M63.6 49L44 39.1c-.6-.3-1.3-.1-1.6.5-.1.2-.1.3-.1.5v19.7c0 .6.6 1.2 1.2 1.1.2 0 .3 0 .5-.1L63.6 51c.6-.3.7-1.1.4-1.6-.1-.2-.3-.3-.4-.4z"/></svg><svg width="100" height="72.9" viewBox="0 0 100 72.9" id="recommendations" x="784.5" y="528" xmlns="http://www.w3.org/2000/svg"><path d="M0 30.5h25.4V0H0v30.5zm0 42.4h25.4V42.4H0v30.5zm37.3 0h25.4V42.4H37.3v30.5zm37.3 0H100V42.4H74.6v30.5zM37.3 30.5h25.4V0H37.3v30.5zM74.6 0v30.5H100V0H74.6z"/></svg><svg width="93.2" height="100" viewBox="-162.6 380.8 93.2 100" id="search" x="784.5" y="600.9" xmlns="http://www.w3.org/2000/svg"><path d="M-72.3 477.9c-3.9 3.9-9.9 3.9-13.8 0l-22.1-22.7c-4.9 2.1-10.1 3.3-15.5 3.3-21.4 0-38.8-17.5-38.8-38.8s17.3-38.8 38.8-38.8S-85 398.3-85 419.6c0 8.9-3.1 17.3-8.2 23.9l21 20.6c3.7 3.7 3.7 9.9-.1 13.8zm-51.5-84.1c-14.4 0-25.8 11.7-25.8 25.8 0 14.4 11.7 25.8 25.8 25.8S-98 433.8-98 419.6c0-14.3-11.6-25.8-25.8-25.8z"/></svg><svg width="100" height="99.4" viewBox="0 0 100 99.4" id="settings" x="300" y="664.3" xmlns="http://www.w3.org/2000/svg"><path d="M31.4 56.6c-3.8-10.3 1.6-21.8 12-25.5 10.4-3.7 22 1.6 25.8 11.8 3.8 10.3-1.6 21.8-11.9 25.5-10.4 3.7-22.1-1.6-25.9-11.8zM13.2 32.9c-3.1 5.6-9.7 7.1-11.9 7.8-.6.3-.9.6-.9 1.2L0 53.4c0 .6.3 1.2.9 1.2 6.6 1.6 9.7 6.2 10.7 8.1.3.3.3.6.3 1.2 1.3 5.9-1.9 11.5-2.8 13.4-.3.6-.3 1.2.3 1.6l7.9 8.4c.3.6 1.3.6 1.6.3 5.7-3.7 11-2.5 12.6-1.9.3 0 .6.3.9.3 5.3 3.4 7.9 9.9 8.2 12.1.3.6.6.9 1.3.9l11.6.3c.6 0 1.3-.3 1.3-.9 1.6-6.8 7.2-9.9 8.8-10.9.3 0 .6-.3.6-.3 6-1.6 11.9 1.6 14.2 2.8.6.3 1.3.3 1.6-.3l8.5-7.8c.6-.3.6-1.2.3-1.6-3.8-5.6-2.2-11.5-1.6-13.7.3-.6.3-.9.6-1.6 3.1-5 8.8-6.8 11-7.5.6-.3.9-.6.9-1.2l.3-11.5c0-.6-.3-1.2-.9-1.2-6.3-1.2-9.1-5.3-10.4-7.1-.3-.5-.7-1.1-.7-1.4-1.3-5.9 1.6-11.5 2.8-13.7.3-.6.3-1.2-.3-1.6l-7.9-8.4c-.3-.6-1.3-.6-1.9-.3-6.9 4.7-15.4 1.2-15.4 1.2-5.7-2.8-6-8.7-6.6-10.9 0-.6-.6-.9-1.3-.9L45.9 0c-.6 0-1.3.3-1.3.9C43 9 36.7 11.8 36.7 11.8c-6 2.2-11.6-1.2-13.5-2.2-.6-.3-1.3-.3-1.6 0l-8.8 7.5c-.6.3-.6 1.2-.3 1.9 4.5 7.1.7 13.9.7 13.9z"/></svg><svg width="100" height="117.6" viewBox="0 0 100 117.6" id="sharing" x="338.5" y="122.7" xmlns="http://www.w3.org/2000/svg"><path d="M82.4 82.4c-4.1.1-8 1.5-11.2 4.1L34.7 63.6c.5-1.5.7-3.1.6-4.7.1-1.6-.1-3.2-.6-4.7l36.5-22.9c3.2 2.6 7.1 4 11.2 4.1 9.6.2 17.5-7.4 17.6-17v-.6C100 8.1 92.1.2 82.4.2c-9.7 0-17.6 7.9-17.6 17.6-.1 1.6.1 3.2.6 4.7L28.9 45.4c-3.2-2.6-7.1-4-11.2-4.1C8 41.3.1 49.2.1 58.9c0 9.7 7.9 17.6 17.6 17.6 4.1-.1 8-1.5 11.2-4.1l36.5 22.9c-.5 1.5-.7 3.1-.6 4.7 0 9.7 7.9 17.6 17.6 17.6 9.7 0 17.6-7.9 17.6-17.6s-7.9-17.6-17.6-17.6z"/></svg><svg width="71.5" height="100" viewBox="0 0 71.5 100" id="sort" x="94.5" y="764.3" xmlns="http://www.w3.org/2000/svg"><path d="M2.3 58.5c3.1-3.1 8.1-3.1 11.1 0l22.3 22.3L58 58.5c3.1-3.1 8.1-3.1 11.1 0 3.1 3.1 3.1 8.1 0 11.2l-27.9 28c-3.1 3.1-8.1 3.1-11.1 0l-27.9-28c-3-3.1-3-8.1.1-11.2zM2.3 30.3l27.9-28c3-3.1 8-3.1 11.1 0l27.9 28c3.1 3.1 3.1 8.1 0 11.2-3 3.1-8 3.1-11.1 0L35.7 19.2 13.4 41.5c-3 3.1-8 3.1-11.1 0-3.1-3.1-3.1-8.1 0-11.2z"/></svg><svg width="100" height="72.2" viewBox="0 0 100 72.2" id="support-email" x="393.2" y="564.3" xmlns="http://www.w3.org/2000/svg"><path fill-rule="evenodd" clip-rule="evenodd" d="M94.4 72.2H5.6c-3.1 0-5.6-2.5-5.6-5.6V11.1L50 50l50-38.9v55.6c0 3-2.5 5.5-5.6 5.5zM0 0h100L50 38.9 0 0z"/></svg><svg width="100" height="100" viewBox="0 0 100 100" id="support-phone" x="784.5" xmlns="http://www.w3.org/2000/svg"><path d="M99 84c-5.7 13.6-18.9 16-23.3 16-1.3 0-21.1 1.1-49.7-26C3.1 52.2.3 28.8 0 24.3-.2 20 1 9.1 16 1c1.9-1 5.5-1.4 6.5-.5.4.4 13 21.1 13.3 21.8.3.7.5 1.4.5 2 0 .9-.7 2.1-2 3.5s-2.8 2.7-4.4 3.9c-1.6 1.2-3 2.4-4.4 3.8-1.3 1.3-2 2.4-2 3.3.1 2.2 1.9 10.1 15.7 22.2 13.8 12.1 20.4 15.5 21 15.7.6.2 1.2.4 1.6.4.9 0 1.9-.7 3.3-2 1.3-1.3 5.8-7.4 7.2-8.8 1.4-1.3 2.6-2 3.5-2 .7 0 1.3.2 2 .5s21.4 12.4 21.8 12.8c.9 1.1.2 4.5-.6 6.4"/></svg><svg width="50" height="27.8" viewBox="-374 287.2 50 27.8" id="tag" x="815.5" y="700.9" xmlns="http://www.w3.org/2000/svg"><path d="M-359.1 287.2c-.6 0-1.3.3-1.7.7l-12.5 12.5c-.4.4-.4 1 0 1.4l12.5 12.5c.4.4 1.2.7 1.7.7h34.1c.5 0 1-.5 1-1v-25.8c0-.6-.5-1-1-1h-34.1zm-.1 18.5c-2.3 0-4.2-1.9-4.2-4.2 0-2.3 1.9-4.2 4.2-4.2 2.3 0 4.2 1.9 4.2 4.2 0 2.3-1.9 4.2-4.2 4.2z"/></svg><svg width="68.8" height="100" viewBox="0 0 68.8 100" id="unlocked" x="599.6" y="200" xmlns="http://www.w3.org/2000/svg"><path d="M34.4 0C23 0 12.9 5.6 6.6 14.2l11.1 6.5c3.2-4.5 8.4-8.2 16.7-8.2 22.1 0 21.9 25 21.9 25H0v56.3c0 3.5 2.8 6.2 6.2 6.2h56.2c3.5 0 6.2-2.8 6.2-6.2V34.4C68.8 15.4 53.4 0 34.4 0zm3.1 74.4v13.1h-6.2V74.4c-3.6-1.3-6.2-4.7-6.2-8.8 0-5.2 4.2-9.4 9.4-9.4s9.4 4.2 9.4 9.4c-.1 4.1-2.8 7.5-6.4 8.8z"/></svg><svg width="100" height="100" viewBox="0 0 100 100" id="upload" y="564.3" xmlns="http://www.w3.org/2000/svg"><path d="M54.9 26c-2.8-2.5-7.2-2.5-10 0L20 48.9c-2.8 2.5-2.8 6.6 0 9.2s7.2 2.5 10 0l12-11v45c0 4.4 3.6 8 8 8s8-3.6 8-8V47.2l11.9 10.9c2.8 2.5 7.2 2.5 10 0s2.8-6.6 0-9.2L54.9 26zM16 0h68c3.3 0 6 2.7 6 6s-2.7 6-6 6H16c-3.3 0-6-2.7-6-6s2.7-6 6-6z"/></svg><svg width="96.4" height="100" viewBox="431.8 460.1 96.4 100" id="usage" y="400" xmlns="http://www.w3.org/2000/svg"><path d="M478.2 460.1v20.2c16.5 0 29.8 13.4 29.8 29.8 0 16.5-13.4 29.8-29.8 29.8-12.2 0-23.2-7.4-27.7-18.8l-18.7 7.5c10.3 25.6 39.3 38.1 65 27.8s38.1-39.3 27.8-65c-7.5-18.9-25.9-31.3-46.4-31.3z"/><path d="M477 501.6c0-3.9-3.2-7.1-7.1-7.1s-7.1 3.2-7.1 7.1c0 3.9 3.2 7.1 7.1 7.1 3.8.1 7-2.9 7.1-6.7v-.4zm-9.9 0c0-1.5 1.3-2.8 2.8-2.8s2.8 1.3 2.8 2.8c0 1.5-1.3 2.8-2.8 2.8s-2.8-1.2-2.8-2.8zM484.6 495l-17.1 28.4h4.1l17.1-28.4zM486.5 509.6c-3.9 0-7.1 3.2-7.1 7.1 0 3.9 3.2 7.1 7.1 7.1s7.1-3.2 7.1-7.1c.1-3.8-2.9-7-6.8-7.1h-.3zm0 10.1c-1.6 0-3-1.2-3-2.8 0-1.6 1.2-3 2.8-3s3 1.2 3 2.8v.1c.1 1.5-1 2.8-2.5 2.9h-.3z"/></svg><svg width="138.9" height="100" viewBox="0 0 138.9 100" id="video" x="163" y="100" xmlns="http://www.w3.org/2000/svg"><path d="M122.2 0H16.7C7.5 0 0 7.5 0 16.7v66.7C0 92.5 7.5 100 16.7 100h105.6c9.2 0 16.7-7.5 16.7-16.7V16.7C138.9 7.5 131.4 0 122.2 0zm5.6 83.3c0 3.1-2.5 5.6-5.6 5.6H16.7c-3.1 0-5.6-2.5-5.6-5.6V16.7c0-3.1 2.5-5.6 5.6-5.6h105.6c3.1 0 5.6 2.5 5.6 5.6v66.6z"/><path d="M94.4 50L55.6 72.2V27.8L94.4 50z"/></svg><svg width="100" height="79.4" viewBox="0 0 100 79.4" id="wrench" x="400" y="664.3" xmlns="http://www.w3.org/2000/svg"><path fill-rule="evenodd" clip-rule="evenodd" d="M99.1 20.6l-15 9.8L74 15.2l14.8-9.8C79.6-1.3 66.9-2 57 4.6c-8.8 6-13.1 15.9-12 25.7L5.6 56.5c-5.8 4-7.3 11.9-3.7 17.4 4.1 5.7 12 7.2 17.8 3.4l39.6-26.1c8.6 4.9 19.6 4.7 28.4-1.3 10.2-6.6 14.2-18.5 11.4-29.3zM17.7 69.9c-2.4 1.7-5.6 1.1-7.1-1.3-1.5-2.3-.9-5.5 1.5-7 2.4-1.7 5.4-1.1 6.9 1.3 1.7 2.3 1 5.5-1.3 7z"/></svg></svg>